<svg width="16" height="17" viewBox="0 0 16 17" fill="none" xmlns="http://www.w3.org/2000/svg">
<path d="M-3.49691e-07 8.96191L0.103598 7.67862L0.411708 6.42857L0.916351 5.24413L1.60446 4.15598L2.4582 3.19229L3.45548 2.37804L4.57046 1.73431L5.77426 1.27777L7.03571 1.02024L8.32213 0.968402L9.6002 1.12359L10.8368 1.48178L12 2.03371L13.0596 2.76507L13.9881 3.65693L14.7615 4.68619L15.3598 5.82618L15.7675 7.04739L15.9741 8.31818L15.9741 9.60565L15.7675 10.8764L15.3598 12.0976L14.7615 13.2376L13.9881 14.2669L13.0596 15.1588L12 15.8901L10.8368 16.442L9.60021 16.8002L8.32213 16.9554L7.03571 16.9036L5.77426 16.6461L4.57046 16.1895L3.45548 15.5458L2.45821 14.7315L1.60446 13.7679L0.916352 12.6797L0.411708 11.4953L0.103598 10.2452L-3.49691e-07 8.96191Z" fill="#2B7D86"/>
</svg>
