<svg width="102" height="49" viewBox="0 0 102 49" fill="none" xmlns="http://www.w3.org/2000/svg">
<g id="Group 1321314438">
<g id="Group">
<g id="Group_2">
<g id="Group_3">
<path id="Vector" d="M51.7529 28.4276C51.5563 28.145 51.4965 28.145 51.4195 28.145C51.3084 28.145 51.2144 28.2306 51.2144 28.3334C51.2144 28.4447 51.2999 28.5046 51.4195 28.5046C51.8384 28.5046 52.1461 28.83 52.1461 29.1896C52.1546 29.6091 51.8213 29.9259 51.3939 29.9259C51.2144 29.9259 50.9494 29.9088 50.6417 29.4122L51.0691 29.1382C51.2315 29.3865 51.3255 29.4036 51.3939 29.4036C51.4879 29.4036 51.599 29.3351 51.5905 29.2324C51.5905 29.1382 51.4965 29.0269 51.3939 29.0269C50.9067 29.0269 50.6503 28.7272 50.6503 28.3248C50.6503 27.931 50.9836 27.597 51.3939 27.597C51.6076 27.597 51.864 27.6142 52.1717 28.1279L51.7529 28.4276Z" fill="white"/>
<path id="Vector_2" d="M57.6335 29.8916V27.6227C57.6335 27.6227 58.796 27.6227 59.0781 27.6227V28.1792C58.8387 28.1792 58.4285 28.1792 58.1891 28.1792V28.4874C58.4798 28.4874 58.8644 28.4874 59.0781 28.4874V29.0354C58.8387 29.0354 58.4798 29.0354 58.1891 29.0354V29.3436C58.4627 29.3436 58.8644 29.3436 59.0781 29.3436V29.9002C58.7875 29.8916 57.6335 29.8916 57.6335 29.8916Z" fill="white"/>
<path id="Vector_3" d="M65.6512 28.4276C65.4546 28.145 65.3948 28.145 65.3179 28.145C65.2067 28.145 65.1127 28.2306 65.1127 28.3334C65.1127 28.4447 65.1982 28.5046 65.3179 28.5046C65.7367 28.5046 66.0444 28.83 66.0529 29.1896C66.0615 29.6091 65.7281 29.9259 65.3008 29.9259C65.1213 29.9259 64.8563 29.9088 64.5486 29.4122L64.976 29.1382C65.1384 29.3865 65.2238 29.4036 65.3008 29.4036C65.3948 29.4036 65.5059 29.3351 65.4974 29.2324C65.4974 29.1382 65.4033 29.0269 65.3008 29.0269C64.8136 29.0269 64.5571 28.7272 64.5571 28.3248C64.5571 27.931 64.8905 27.597 65.3008 27.597C65.5145 27.597 65.7709 27.6142 66.0786 28.1279L65.6512 28.4276Z" fill="white"/>
<path id="Vector_4" d="M72.6089 28.4276C72.4123 28.145 72.3524 28.145 72.2755 28.145C72.1644 28.145 72.0704 28.2306 72.0704 28.3334C72.0704 28.4447 72.1558 28.5046 72.2755 28.5046C72.6943 28.5046 73.002 28.83 73.0106 29.1896C73.0191 29.6091 72.6858 29.9259 72.2584 29.9259C72.0789 29.9259 71.8139 29.9088 71.5062 29.4122L71.9336 29.1382C72.096 29.3865 72.1815 29.4036 72.2584 29.4036C72.3524 29.4036 72.4635 29.3351 72.455 29.2324C72.455 29.1382 72.361 29.0269 72.2584 29.0269C71.7712 29.0269 71.5148 28.7272 71.5148 28.3248C71.5148 27.931 71.8481 27.597 72.2584 27.597C72.4721 27.597 72.7285 27.6142 73.0362 28.1279L72.6089 28.4276Z" fill="white"/>
<path id="Vector_5" d="M78.9425 29.9002C78.9425 29.6262 78.9425 27.9138 78.9425 27.6313H79.4981C79.4981 27.9138 79.4981 29.6262 79.4981 29.9002H78.9425Z" fill="white"/>
<path id="Vector_6" d="M86.1994 29.9602C85.5326 29.9602 84.9856 29.4122 84.9856 28.7615C84.9856 28.1194 85.5412 27.58 86.1994 27.58C86.8575 27.58 87.396 28.1279 87.396 28.7615C87.3875 29.4122 86.8575 29.9602 86.1994 29.9602ZM86.1994 28.1536C85.8404 28.1536 85.5668 28.4362 85.5668 28.7701C85.5668 29.1125 85.8404 29.3865 86.1994 29.3865C86.5413 29.3865 86.8062 29.1125 86.8062 28.7701C86.8062 28.4362 86.5327 28.1536 86.1994 28.1536Z" fill="white"/>
<path id="Vector_7" d="M92.5759 28.6502C92.5759 28.693 92.5759 28.7529 92.5759 28.8043C92.5759 29.1896 92.5759 29.729 92.5759 29.9002H92.0203C92.0203 29.6433 92.0203 27.5114 92.0203 27.5114L93.6785 28.8728C93.6785 28.8385 93.6699 28.7957 93.6699 28.7615C93.6699 28.3419 93.6699 27.8025 93.6699 27.6398H94.2255C94.2255 27.8967 94.2255 30.0286 94.2255 30.0286L92.5759 28.6502Z" fill="white"/>
<path id="Vector_8" d="M100.414 28.4276C100.217 28.145 100.157 28.145 100.081 28.145C99.9694 28.145 99.8754 28.2306 99.8754 28.3334C99.8754 28.4447 99.9609 28.5046 100.081 28.5046C100.499 28.5046 100.807 28.83 100.816 29.1896C100.824 29.6091 100.491 29.9259 100.063 29.9259C99.884 29.9259 99.619 29.9088 99.3113 29.4122L99.7387 29.1382C99.9011 29.3865 99.9865 29.4036 100.063 29.4036C100.157 29.4036 100.269 29.3351 100.26 29.2324C100.26 29.1382 100.166 29.0269 100.063 29.0269C99.5762 29.0269 99.3198 28.7272 99.3198 28.3248C99.3198 27.931 99.6532 27.597 100.063 27.597C100.277 27.597 100.534 27.6142 100.841 28.1279L100.414 28.4276Z" fill="white"/>
</g>
<path id="Vector_9" d="M68.7881 0.0703735V11.8516H72.3268V12.7164H66.2922V0.0703735H68.7881Z" fill="white"/>
<path id="Vector_10" d="M75.5237 2.74176H73.327L71.3867 9.31733C73.3185 9.31733 75.4126 9.31733 77.3529 9.31733L75.5237 2.74176ZM72.5492 8.62381L73.6433 4.80518L74.6604 8.62381H72.5492Z" fill="white"/>
<path id="Vector_11" d="M62.9759 2.74176H60.7792L58.8389 9.31733C60.7706 9.31733 62.8648 9.31733 64.805 9.31733L62.9759 2.74176ZM60.0099 8.62381L61.104 4.80518L62.1211 8.62381H60.0099Z" fill="white"/>
<path id="Vector_12" d="M50.6332 12.8277V4.21436H54.4625C56.4284 4.21436 57.4199 4.91644 57.4199 6.32915C57.4199 7.3309 56.8216 7.97305 55.6335 8.25559C57.0695 8.53814 57.7789 9.30015 57.7789 10.5416C57.7789 12.0657 56.813 12.8362 54.8899 12.8362H50.6332V12.8277ZM53.1376 7.96449H53.9069C54.6163 7.96449 54.9753 7.44221 54.9753 6.38909C54.9753 5.41303 54.5992 4.93356 53.8471 4.93356H53.1376V7.96449ZM53.1376 12.117H53.8471C54.7787 12.117 55.2488 11.5862 55.2488 10.5159C55.2488 9.29158 54.7702 8.67513 53.8043 8.67513H53.1376V12.117Z" fill="white"/>
<path id="Vector_13" d="M85.5586 4.21436V12.8277H83.6525L80.0625 7.37371V12.8277H79.2249V4.21436H80.8061L84.7295 10.105V4.21436H85.5586Z" fill="white"/>
<path id="Vector_14" d="M92.7639 9.36864L93.8324 9.64262C93.8495 9.86523 93.858 10.0536 93.858 10.2077C93.858 11.0468 93.5589 11.7146 92.952 12.2198C92.3451 12.7249 91.5331 12.9732 90.5159 12.9732C87.9688 12.9732 86.6866 11.5348 86.6866 8.658C86.6866 7.07404 86.8661 6.41477 87.8064 5.33597C88.55 4.48834 89.5159 4.06024 90.7125 4.06024C92.5759 4.06024 93.5076 4.95924 93.5076 6.74869L92.4391 7.24528C92.4562 6.98842 92.4562 6.80006 92.4562 6.65451C92.4562 5.37878 91.9519 4.7452 90.9348 4.7452C89.8578 4.7452 89.3193 6.09798 89.3193 8.79499C89.3193 11.1153 89.9176 12.2711 91.1228 12.2711C91.6186 12.2711 92.0289 12.0742 92.3622 11.6804C92.6956 11.2865 92.858 10.7899 92.858 10.1991C92.8409 10.0193 92.8152 9.74537 92.7639 9.36864Z" fill="white"/>
<path id="Vector_15" d="M100.294 4.21436V5.07911H97.2088V7.6905H99.7987V8.55526H97.2088V11.9715H100.816V12.8362H94.7129V4.21436H100.294Z" fill="white"/>
<path id="Vector_16" d="M53.6761 17.7166V18.1875H51.9837V19.7457H53.4197V20.2166H51.9837V22.3914H50.6332V17.7251H53.6761V17.7166Z" fill="white"/>
<path id="Vector_17" d="M56.0353 17.6395C57.3944 17.6395 58.0696 18.4443 58.0696 20.0539C58.0696 21.6636 57.3773 22.4684 56.0011 22.4684C54.6164 22.4684 53.9326 21.6465 53.9326 20.0026C53.9326 18.4186 54.6335 17.6395 56.0353 17.6395ZM56.0011 18.0076C55.7447 18.0076 55.5737 18.1446 55.4883 18.4272C55.4028 18.7097 55.3515 19.2491 55.3515 20.0454C55.3515 20.8416 55.3942 21.381 55.4883 21.6636C55.5737 21.9461 55.7532 22.0831 56.0011 22.0831C56.249 22.0831 56.4285 21.9461 56.5225 21.6636C56.6165 21.381 56.6593 20.8416 56.6593 20.0454C56.6593 19.2491 56.6165 18.7097 56.5225 18.4272C56.4285 18.1532 56.2575 18.0076 56.0011 18.0076Z" fill="white"/>
<path id="Vector_18" d="M58.6681 22.3828V17.7166H60.6682C61.1896 17.7166 61.6084 17.8279 61.9162 18.0505C62.2324 18.2731 62.3863 18.5642 62.3863 18.9323C62.3863 19.4974 62.0529 19.8656 61.3862 20.0368C61.7281 20.1653 61.9503 20.3023 62.0529 20.4564C62.1555 20.6105 62.2239 20.9016 62.2581 21.3468C62.3008 21.8691 62.3863 22.2201 62.523 22.3828H61.0528C60.9588 22.1688 60.9161 21.8948 60.9161 21.5694L60.9075 21.2954L60.899 20.9444C60.899 20.405 60.6853 20.1396 60.2494 20.1396H60.0186V22.3828H58.6681ZM60.0271 19.7543H60.3007C60.8135 19.7543 61.0699 19.4889 61.0699 18.9495C61.0699 18.4101 60.8135 18.1446 60.3007 18.1446H60.0271V19.7543Z" fill="white"/>
<path id="Vector_19" d="M66.7711 19.1549V22.3999H64.8821V15.8843H66.7711V18.5042H68.3096V15.8843H70.1986V22.3999H68.3096V19.1549H66.7711Z" fill="white"/>
<path id="Vector_20" d="M75.5236 15.8842V16.5349H73.1902V18.5042H75.1475V19.1549H73.1902V21.7406H75.9168V22.3913H71.3011V15.8757L75.5236 15.8842Z" fill="white"/>
<path id="Vector_21" d="M79.6435 15.8843L81.4556 22.3999H79.5581L79.1734 20.9872H77.2161L76.8058 22.3999H76.0707L77.9939 15.8843H79.6435ZM77.4041 20.3279H79.0025L78.2332 17.4425L77.4041 20.3279Z" fill="white"/>
<path id="Vector_22" d="M83.6781 15.8843V21.7492H86.3534V22.3999H81.7891V15.8843H83.6781Z" fill="white"/>
<path id="Vector_23" d="M88.6356 15.8843V22.3999H86.7466V15.8843H88.6356Z" fill="white"/>
<path id="Vector_24" d="M94.5249 15.8843V22.3999H93.0804L90.3623 18.2731V22.3999H89.7297V15.8843H90.9264L93.8924 20.3365V15.8843H94.5249Z" fill="white"/>
<path id="Vector_25" d="M98.1491 18.8809H100.824V22.3999H100.226L100.021 21.9547C99.4996 22.3314 98.944 22.5112 98.3627 22.5112C97.4054 22.5112 96.6532 22.2201 96.1233 21.6464C95.5933 21.0642 95.3284 20.2594 95.3284 19.2063C95.3284 18.1874 95.6104 17.3569 96.1746 16.7233C96.7387 16.0897 97.4738 15.7729 98.3884 15.7729C99.585 15.7729 100.32 16.3894 100.577 17.6138L99.6876 18.0162V17.8621L99.6705 17.511C99.6107 16.7404 99.2602 16.3637 98.6106 16.3637C98.132 16.3637 97.8072 16.5692 97.6362 16.9716C97.4653 17.374 97.3712 18.136 97.3712 19.2491C97.3712 20.2851 97.4396 20.9957 97.5849 21.3639C97.7302 21.7406 97.9952 21.9204 98.3884 21.9204C98.8585 21.9204 99.0893 21.6636 99.0893 21.1413V19.5402H98.1491V18.8809Z" fill="white"/>
<path id="Vector_26" d="M100.824 2.75024H50.6332V2.93005H100.824V2.75024Z" fill="white"/>
<path id="Vector_27" d="M100.824 14.4116H50.6332V14.5914H100.824V14.4116Z" fill="white"/>
<path id="Vector_28" d="M100.833 24.4976H50.6332V24.6774H100.833V24.4976Z" fill="white"/>
</g>
<g id="Group_4">
<path id="Vector_29" d="M51.3426 41.0477C50.7443 40.7738 50.2827 40.3457 49.975 39.7635C49.6673 39.1812 49.5134 38.4449 49.5134 37.563C49.5134 36.6812 49.6673 35.9448 49.975 35.3541C50.2827 34.7633 50.7357 34.3352 51.3426 34.0698V34.4379C50.958 34.7034 50.6844 35.0715 50.522 35.551C50.3596 36.0305 50.2742 36.6983 50.2742 37.563C50.2742 38.4278 50.3596 39.0956 50.522 39.5751C50.6844 40.0546 50.958 40.4227 51.3426 40.6881V41.0477Z" fill="white"/>
<path id="Vector_30" d="M78.0792 41.0478V40.6796C78.4639 40.4142 78.7374 40.046 78.8998 39.5665C79.0707 39.0871 79.1477 38.4192 79.1477 37.5545C79.1477 36.6897 79.0622 36.0133 78.8998 35.5424C78.7288 35.063 78.4553 34.6948 78.0792 34.4294V34.0612C78.6861 34.3352 79.1391 34.7633 79.4468 35.3455C79.7545 35.9277 79.9084 36.664 79.9084 37.5545C79.9084 38.4364 79.7545 39.1641 79.4468 39.7549C79.1306 40.3542 78.6776 40.7823 78.0792 41.0478Z" fill="white"/>
<path id="Vector_31" d="M86.4301 36.8866V37.6315H85.0369V39.01H86.4301V39.7977C86.4557 40.6453 86.0455 41.0391 85.2163 40.9792H83.7376H83.7291C83.3017 40.9278 83.0966 40.6624 83.1137 40.2001V37.5373H83.8316V40.2172H85.242C85.43 40.1915 85.5326 40.1059 85.5583 39.9603V39.8062C85.5583 39.7891 85.5497 39.772 85.5497 39.7548H84.2077V37.8284C84.1906 37.212 84.43 36.8952 84.9343 36.8866H86.4301ZM83.7804 42.1351H84.5582V41.3559H83.7804V42.1351ZM84.8915 42.1351H85.6694V41.3559H84.8915V42.1351Z" fill="white"/>
<path id="Vector_32" d="M88.1311 36.8867V39.1556H88.4986V39.8662H88.0883C87.943 40.6454 87.4814 41.0135 86.6865 40.9793V40.2173C87.0968 40.2173 87.3019 39.9347 87.2934 39.3611V36.8781H88.1311V36.8867Z" fill="white"/>
<path id="Vector_33" d="M88.3448 39.1556H91.4647C91.5929 38.4621 91.4305 38.111 90.9946 38.0854H88.7124V37.0836L90.8065 35.3969H92.0032L89.7637 37.2549H91.0202C91.8835 37.2977 92.3365 37.7086 92.3793 38.4792V39.147H92.6101L92.6186 39.8577H88.3619V39.1556H88.3448Z" fill="white"/>
<path id="Vector_34" d="M95.3965 37.4431H96.3026V39.1555H97.2171V36.8866H98.1232V39.1555H98.5164V39.8661H92.5074V39.1555H93.5759V37.9996H94.4819V39.1555H95.3965V37.4431Z" fill="white"/>
<path id="Vector_35" d="M98.8412 35.3969H99.7131V39.1556V39.8662H98.3711V39.1556H98.8498L98.8412 35.3969Z" fill="white"/>
<path id="Vector_36" d="M101.038 39.8662H100.166V35.3969H101.038V39.8662Z" fill="white"/>
</g>
<path id="Vector_37" d="M100.901 32.5801H50.7015V32.7599H100.901V32.5801Z" fill="white"/>
</g>
<g id="Group_5">
<path id="Vector_38" d="M21.8451 45.8339L19.674 42.5547H17.9474L21.8451 48.4367L25.7427 42.5547H24.0161L21.8451 45.8339Z" fill="white"/>
<path id="Vector_39" d="M39.4275 2.20227H4.0663C2.27132 2.20227 0.809692 3.62355 0.809692 5.37875V38.9844C0.809692 40.7395 2.27132 42.1608 4.0663 42.1608H18.2809V40.7567V3.60643H25.0847V40.7567V42.1608H39.4189C41.2139 42.1608 42.6755 40.7395 42.6755 38.9844V5.37875C42.6755 3.62355 41.2139 2.20227 39.4275 2.20227ZM4.0663 40.7567C3.04915 40.7567 2.21149 39.9604 2.21149 38.9844V5.37875C2.21149 4.40269 3.0406 3.60643 4.0663 3.60643H8.60505V40.7567H4.0663ZM39.4275 3.60643C40.4446 3.60643 41.2823 4.40269 41.2823 5.37875V38.9844C41.2823 39.9604 40.4532 40.7567 39.4275 40.7567H34.7691V3.60643H39.4275ZM16.8449 40.7567H10.041V3.60643H16.8449V40.7567ZM26.5207 3.60643H33.3245V40.7567H26.5207V3.60643Z" fill="white"/>
</g>
<g id="Group_6">
<path id="Vector_40" d="M55.1291 35.3028H55.9838V39.07V39.7807C55.924 40.1917 55.7873 40.4828 55.5736 40.6626C55.3684 40.8424 55.0607 40.9194 54.6504 40.8937H53.3683C52.9666 40.8937 52.6589 40.7653 52.4366 40.5256C52.2229 40.2773 52.1204 39.8492 52.1204 39.2242V37.9142H53.0093V39.5838C53.0178 39.9519 53.2059 40.1403 53.5563 40.1403H54.5479C54.9496 40.1489 55.1376 39.9006 55.112 39.3868V35.3028H55.1291Z" fill="white"/>
<path id="Vector_41" d="M58.779 36.7927V39.0701V39.7808C58.7876 40.0976 58.7192 40.3544 58.5739 40.5599C58.3517 40.8082 58.0269 40.9281 57.5995 40.9024H56.5054V40.1404H57.702C57.9243 40.1233 58.0098 40.0034 57.9585 39.7808C57.3516 39.815 56.8986 39.6181 56.6165 39.2071C56.3344 38.7876 56.2832 38.291 56.4712 37.7002C56.6592 37.1095 57.326 36.8098 58.4799 36.8012H58.779V36.7927ZM57.9585 37.529C57.3174 37.5547 57.0524 37.8886 57.1465 38.5136C57.2832 38.9331 57.5567 39.1129 57.9585 39.0701V37.529Z" fill="white"/>
<path id="Vector_42" d="M60.1294 36.7926H61.0013V39.0701H61.8389V35.3029H62.7108V39.0701V39.7807H59.2405V39.0701H60.1294V36.7926ZM60.232 35.6111V35.9536H60.1209V36.2361H60.8902V35.945H60.4542V35.731C60.4457 35.6625 60.4799 35.6282 60.5483 35.6368H60.8902V35.3457H60.3944C60.3004 35.4313 60.2491 35.5255 60.232 35.6111Z" fill="white"/>
<path id="Vector_43" d="M64.0271 39.7807H63.1553V35.3029H64.0271V39.7807Z" fill="white"/>
<path id="Vector_44" d="M69.8223 39.7807H67.8564C67.7367 39.7893 67.6769 39.8578 67.6683 39.9862C67.6598 40.1061 67.8051 40.1574 68.1042 40.1403H69.6001V40.9023H68.0359C67.4546 40.9366 67.0956 40.7996 66.9589 40.4914C66.8307 40.1831 66.8221 39.8663 66.9589 39.5239C67.0529 39.2756 67.2922 39.13 67.6854 39.0872L67.694 39.0786C67.5487 38.8817 67.4803 38.5478 67.5145 38.0854C67.5658 37.6488 67.7794 37.2892 68.1641 37.0323C68.5487 36.7669 68.9846 36.6899 69.4719 36.8012L69.6428 37.5032C68.7197 37.4519 68.2923 37.7858 68.3607 38.5221C68.412 38.8303 68.5744 39.0187 68.8393 39.0786H69.8223V39.7807Z" fill="white"/>
<path id="Vector_45" d="M72.626 36.7927V39.0701H72.9764V39.7808H72.626C72.6345 40.0976 72.5661 40.3544 72.4208 40.5599C72.1986 40.8082 71.8738 40.9281 71.4464 40.9024H70.3523V40.1404H71.549C71.7712 40.1233 71.8567 40.0034 71.8054 39.7808C71.1985 39.815 70.7455 39.6181 70.4634 39.2071C70.1814 38.7876 70.1301 38.291 70.3181 37.7002C70.5062 37.1095 71.1729 36.8098 72.3268 36.8012H72.626V36.7927ZM71.8139 37.529C71.1729 37.5547 70.9079 37.8886 71.0019 38.5136C71.1387 38.9331 71.4122 39.1129 71.8139 39.0701V37.529Z" fill="white"/>
<path id="Vector_46" d="M73.4465 36.7927H74.3183V39.0701H74.8226V39.7808H72.8225V39.0701H73.4465V36.7927ZM73.455 35.4484H74.2414V36.2361H73.455V35.4484Z" fill="white"/>
<path id="Vector_47" d="M75.156 35.3029H76.0279V39.0701V39.7807H74.6774V39.0701H75.156V35.3029Z" fill="white"/>
<path id="Vector_48" d="M77.3527 39.7807H76.4808V35.3029H77.3527V39.7807Z" fill="white"/>
</g>
</g>
</svg>
