<svg width="97" height="47" viewBox="0 0 97 47" fill="none" xmlns="http://www.w3.org/2000/svg">
<g id="Group 1321314441">
<g id="Group 1321314439">
<g id="Group">
<path id="Vector" d="M21.1545 43.9269L19.0643 40.7753H17.3987L21.1545 46.4335L24.9103 40.7753H23.2447L21.1545 43.9269Z" fill="white"/>
<path id="Vector_2" d="M38.0882 1.95972H4.02458C2.29363 1.95972 0.889282 3.33141 0.889282 5.01336V37.3298C0.889282 39.0117 2.29363 40.3834 4.02458 40.3834H17.7252V39.0362V3.31508H24.2815V39.0444V40.3916H38.0882C39.8192 40.3916 41.2235 39.0199 41.2235 37.3379V5.02153C41.2235 3.33141 39.8192 1.95972 38.0882 1.95972ZM4.02458 39.0444C3.0448 39.0444 2.23648 38.2769 2.23648 37.3379V5.02153C2.23648 4.08257 3.03663 3.31508 4.02458 3.31508H8.39276V39.0444H4.02458ZM38.0882 3.31508C39.068 3.31508 39.8682 4.08257 39.8682 5.02153V37.3379C39.8682 38.2769 39.068 39.0444 38.0882 39.0444H33.5976V3.31508H38.0882ZM16.3371 39.0444H9.78078V3.31508H16.3371V39.0444ZM25.6614 3.31508H32.2177V39.0444H25.6614V3.31508Z" fill="white"/>
</g>
<g id="Group_2">
<g id="Group_3">
<g id="Group_4">
<path id="Vector_3" d="M49.7312 27.1156C49.5434 26.8462 49.4863 26.8462 49.4128 26.8462C49.3067 26.8462 49.2168 26.9278 49.2168 27.0258C49.2168 27.1319 49.2985 27.1891 49.4128 27.1891C49.8129 27.1891 50.1068 27.4993 50.1068 27.8423C50.115 28.2423 49.7966 28.5444 49.3883 28.5444C49.2168 28.5444 48.9637 28.5281 48.6698 28.0546L49.078 27.7933C49.2332 28.0301 49.323 28.0464 49.3883 28.0464C49.4781 28.0464 49.5843 27.9811 49.5761 27.8831C49.5761 27.7933 49.4863 27.6871 49.3883 27.6871C48.9229 27.6871 48.678 27.4014 48.678 27.0176C48.678 26.642 48.9964 26.3236 49.3883 26.3236C49.5924 26.3236 49.8374 26.3399 50.1313 26.8298L49.7312 27.1156Z" fill="white"/>
<path id="Vector_4" d="M55.3485 28.5118V26.3481C55.3485 26.3481 56.4589 26.3481 56.7284 26.3481V26.8788C56.4998 26.8788 56.1078 26.8788 55.8792 26.8788V27.1727C56.1568 27.1727 56.5242 27.1727 56.7284 27.1727V27.6953C56.4998 27.6953 56.1568 27.6953 55.8792 27.6953V27.9892C56.1405 27.9892 56.5242 27.9892 56.7284 27.9892V28.5199C56.4508 28.5118 55.3485 28.5118 55.3485 28.5118Z" fill="white"/>
<path id="Vector_5" d="M63.0072 27.1156C62.8194 26.8462 62.7623 26.8462 62.6888 26.8462C62.5827 26.8462 62.4929 26.9278 62.4929 27.0258C62.4929 27.1319 62.5745 27.1891 62.6888 27.1891C63.0889 27.1891 63.3828 27.4993 63.391 27.8423C63.3992 28.2423 63.0807 28.5444 62.6725 28.5444C62.501 28.5444 62.2479 28.5281 61.954 28.0546L62.3622 27.7933C62.5174 28.0301 62.599 28.0464 62.6725 28.0464C62.7623 28.0464 62.8684 27.9811 62.8603 27.8831C62.8603 27.7933 62.7705 27.6871 62.6725 27.6871C62.2071 27.6871 61.9621 27.4014 61.9621 27.0176C61.9621 26.642 62.2806 26.3236 62.6725 26.3236C62.8766 26.3236 63.1215 26.3399 63.4155 26.8298L63.0072 27.1156Z" fill="white"/>
<path id="Vector_6" d="M69.6536 27.1156C69.4658 26.8462 69.4087 26.8462 69.3352 26.8462C69.229 26.8462 69.1392 26.9278 69.1392 27.0258C69.1392 27.1319 69.2209 27.1891 69.3352 27.1891C69.7353 27.1891 70.0292 27.4993 70.0374 27.8423C70.0455 28.2423 69.7271 28.5444 69.3189 28.5444C69.1474 28.5444 68.8943 28.5281 68.6003 28.0546L69.0086 27.7933C69.1637 28.0301 69.2454 28.0464 69.3189 28.0464C69.4087 28.0464 69.5148 27.9811 69.5066 27.8831C69.5066 27.7933 69.4168 27.6871 69.3189 27.6871C68.8535 27.6871 68.6085 27.4014 68.6085 27.0176C68.6085 26.642 68.9269 26.3236 69.3189 26.3236C69.523 26.3236 69.7679 26.3399 70.0618 26.8298L69.6536 27.1156Z" fill="white"/>
<path id="Vector_7" d="M75.7035 28.5199C75.7035 28.2587 75.7035 26.6257 75.7035 26.3563H76.2342C76.2342 26.6257 76.2342 28.2587 76.2342 28.5199H75.7035Z" fill="white"/>
<path id="Vector_8" d="M82.6355 28.5771C81.9986 28.5771 81.4761 28.0545 81.4761 27.434C81.4761 26.8216 82.0068 26.3073 82.6355 26.3073C83.2642 26.3073 83.7786 26.8298 83.7786 27.434C83.7704 28.0545 83.2642 28.5771 82.6355 28.5771ZM82.6355 26.8543C82.2926 26.8543 82.0313 27.1237 82.0313 27.4422C82.0313 27.7688 82.2926 28.03 82.6355 28.03C82.9621 28.03 83.2152 27.7688 83.2152 27.4422C83.2152 27.1237 82.9539 26.8543 82.6355 26.8543Z" fill="white"/>
<path id="Vector_9" d="M88.7265 27.3279C88.7265 27.3687 88.7265 27.4258 88.7265 27.4748C88.7265 27.8423 88.7265 28.3566 88.7265 28.5199H88.1958C88.1958 28.275 88.1958 26.2419 88.1958 26.2419L89.7798 27.5402C89.7798 27.5075 89.7716 27.4667 89.7716 27.434C89.7716 27.0339 89.7716 26.5195 89.7716 26.3644H90.3023C90.3023 26.6094 90.3023 28.6424 90.3023 28.6424L88.7265 27.3279Z" fill="white"/>
<path id="Vector_10" d="M96.2135 27.1156C96.0258 26.8462 95.9686 26.8462 95.8951 26.8462C95.789 26.8462 95.6992 26.9278 95.6992 27.0258C95.6992 27.1319 95.7808 27.1891 95.8951 27.1891C96.2952 27.1891 96.5891 27.4993 96.5973 27.8423C96.6055 28.2423 96.287 28.5444 95.8788 28.5444C95.7073 28.5444 95.4542 28.5281 95.1603 28.0546L95.5685 27.7933C95.7237 28.0301 95.8053 28.0464 95.8788 28.0464C95.9686 28.0464 96.0747 27.9811 96.0666 27.8831C96.0666 27.7933 95.9768 27.6871 95.8788 27.6871C95.4134 27.6871 95.1684 27.4014 95.1684 27.0176C95.1684 26.642 95.4869 26.3236 95.8788 26.3236C96.0829 26.3236 96.3279 26.3399 96.6218 26.8298L96.2135 27.1156Z" fill="white"/>
</g>
<path id="Vector_11" d="M66.0036 0.0736084V11.3084H69.3839V12.1331H63.6195V0.0736084H66.0036Z" fill="white"/>
<path id="Vector_12" d="M72.4375 2.62097H70.3391L68.4857 8.89156C70.331 8.89156 72.3313 8.89156 74.1848 8.89156L72.4375 2.62097ZM69.5961 8.23021L70.6412 4.5887L71.6128 8.23021H69.5961Z" fill="white"/>
<path id="Vector_13" d="M60.4517 2.62097H58.3533L56.4999 8.89156C58.3451 8.89156 60.3455 8.89156 62.1989 8.89156L60.4517 2.62097ZM57.6185 8.23021L58.6636 4.5887L59.6352 8.23021H57.6185Z" fill="white"/>
<path id="Vector_14" d="M48.6616 12.2392V4.02539H52.3195C54.1974 4.02539 55.1445 4.69491 55.1445 6.0421C55.1445 6.99739 54.573 7.60975 53.438 7.87919C54.8097 8.14863 55.4874 8.8753 55.4874 10.0592C55.4874 11.5125 54.5648 12.2474 52.7277 12.2474H48.6616V12.2392ZM51.0539 7.60159H51.7888C52.4664 7.60159 52.8094 7.10353 52.8094 6.09926C52.8094 5.16847 52.4501 4.71124 51.7316 4.71124H51.0539V7.60159ZM51.0539 11.5615H51.7316C52.6216 11.5615 53.0706 11.0553 53.0706 10.0347C53.0706 8.86713 52.6134 8.27927 51.6908 8.27927H51.0539V11.5615Z" fill="white"/>
<path id="Vector_15" d="M82.023 4.02539V12.2392H80.2023L76.7731 7.03821V12.2392H75.9729V4.02539H77.4834L81.2311 9.64279V4.02539H82.023Z" fill="white"/>
<path id="Vector_16" d="M88.9061 8.94061L89.9267 9.20189C89.9431 9.41417 89.9512 9.5938 89.9512 9.74077C89.9512 10.5409 89.6655 11.1778 89.0858 11.6595C88.5061 12.1412 87.7304 12.378 86.7588 12.378C84.3257 12.378 83.101 11.0063 83.101 8.26293C83.101 6.75244 83.2724 6.12375 84.1705 5.09498C84.8809 4.28666 85.8035 3.87842 86.9466 3.87842C88.7265 3.87842 89.6165 4.73572 89.6165 6.44217L88.5959 6.91574C88.6122 6.67079 88.6122 6.49117 88.6122 6.35236C88.6122 5.1358 88.1305 4.5316 87.1589 4.5316C86.1301 4.5316 85.6157 5.82165 85.6157 8.39357C85.6157 10.6062 86.1873 11.7085 87.3385 11.7085C87.8121 11.7085 88.204 11.5207 88.5224 11.1451C88.8408 10.7695 88.996 10.296 88.996 9.7326C88.9796 9.56114 88.9551 9.29987 88.9061 8.94061Z" fill="white"/>
<path id="Vector_17" d="M96.0993 4.02539V4.85004H93.1518V7.34031H95.6258V8.16496H93.1518V11.4227H96.5974V12.2474H90.7677V4.02539H96.0993Z" fill="white"/>
<path id="Vector_18" d="M51.5683 16.9013V17.3504H49.9517V18.8364H51.3234V19.2854H49.9517V21.3593H48.6616V16.9095H51.5683V16.9013Z" fill="white"/>
<path id="Vector_19" d="M53.8219 16.8279C55.1201 16.8279 55.7651 17.5954 55.7651 19.1304C55.7651 20.6654 55.1038 21.4328 53.7892 21.4328C52.4665 21.4328 51.8134 20.649 51.8134 19.0814C51.8134 17.5709 52.4829 16.8279 53.8219 16.8279ZM53.7892 17.179C53.5443 17.179 53.381 17.3096 53.2994 17.579C53.2177 17.8485 53.1687 18.3629 53.1687 19.1222C53.1687 19.8815 53.2095 20.3959 53.2994 20.6654C53.381 20.9348 53.5525 21.0654 53.7892 21.0654C54.026 21.0654 54.1975 20.9348 54.2873 20.6654C54.3771 20.3959 54.4179 19.8815 54.4179 19.1222C54.4179 18.3629 54.3771 17.8485 54.2873 17.579C54.1975 17.3178 54.0342 17.179 53.7892 17.179Z" fill="white"/>
<path id="Vector_20" d="M56.3365 21.3511V16.9013H58.2471C58.7452 16.9013 59.1452 17.0074 59.4392 17.2197C59.7413 17.432 59.8882 17.7096 59.8882 18.0607C59.8882 18.5996 59.5698 18.9507 58.933 19.114C59.2596 19.2364 59.4718 19.3671 59.5698 19.5141C59.6678 19.661 59.7331 19.9386 59.7658 20.3632C59.8066 20.8612 59.8882 21.196 60.0189 21.3511H58.6145C58.5247 21.147 58.4839 20.8857 58.4839 20.5755L58.4757 20.3142L58.4676 19.9794C58.4676 19.4651 58.2634 19.212 57.847 19.212H57.6266V21.3511H56.3365ZM57.6348 18.8445H57.896C58.3859 18.8445 58.6309 18.5914 58.6309 18.077C58.6309 17.5627 58.3859 17.3095 57.896 17.3095H57.6348V18.8445Z" fill="white"/>
<path id="Vector_21" d="M64.0769 18.273V21.3675H62.2725V15.1541H64.0769V17.6525H65.5466V15.1541H67.351V21.3675H65.5466V18.273H64.0769Z" fill="white"/>
<path id="Vector_22" d="M72.4378 15.154V15.7746H70.2088V17.6525H72.0786V18.273H70.2088V20.7388H72.8134V21.3593H68.4044V15.1459L72.4378 15.154Z" fill="white"/>
<path id="Vector_23" d="M76.3731 15.1541L78.104 21.3675H76.2915L75.924 20.0203H74.0543L73.6624 21.3675H72.9602L74.7973 15.1541H76.3731ZM74.2339 19.3916H75.7607L75.0259 16.6401L74.2339 19.3916Z" fill="white"/>
<path id="Vector_24" d="M80.2269 15.1541V20.747H82.7825V21.3675H78.4225V15.1541H80.2269Z" fill="white"/>
<path id="Vector_25" d="M84.9625 15.1541V21.3675H83.1581V15.1541H84.9625Z" fill="white"/>
<path id="Vector_26" d="M90.588 15.1541V21.3675H89.2082L86.6118 17.432V21.3675H86.0076V15.1541H87.1506L89.9838 19.3998V15.1541H90.588Z" fill="white"/>
<path id="Vector_27" d="M94.0499 18.0117H96.6054V21.3675H96.0339L95.838 20.9429C95.3399 21.3022 94.8092 21.4736 94.254 21.4736C93.3395 21.4736 92.621 21.196 92.1148 20.649C91.6086 20.0938 91.3555 19.3263 91.3555 18.322C91.3555 17.3504 91.6249 16.5584 92.1638 15.9542C92.7027 15.35 93.4048 15.0479 94.2785 15.0479C95.4215 15.0479 96.1237 15.6358 96.3687 16.8034L95.5195 17.1871V17.0401L95.5032 16.7054C95.446 15.9705 95.1113 15.6113 94.4908 15.6113C94.0335 15.6113 93.7233 15.8072 93.56 16.191C93.3967 16.5747 93.3069 17.3014 93.3069 18.3628C93.3069 19.3508 93.3722 20.0285 93.511 20.3795C93.6498 20.7388 93.9029 20.9103 94.2785 20.9103C94.7275 20.9103 94.948 20.6653 94.948 20.1673V18.6404H94.0499V18.0117Z" fill="white"/>
<path id="Vector_28" d="M96.6055 2.62927H48.6616V2.80073H96.6055V2.62927Z" fill="white"/>
<path id="Vector_29" d="M96.6055 13.7496H48.6616V13.9211H96.6055V13.7496Z" fill="white"/>
<path id="Vector_30" d="M96.6137 23.3679H48.6616V23.5393H96.6137V23.3679Z" fill="white"/>
</g>
<g id="Group_5">
<path id="Vector_31" d="M49.3393 39.1506C48.7678 38.8893 48.3269 38.481 48.0329 37.9258C47.739 37.3706 47.592 36.6684 47.592 35.8275C47.592 34.9865 47.739 34.2843 48.0329 33.7209C48.3269 33.1576 48.7596 32.7493 49.3393 32.4962V32.8473C48.9719 33.1004 48.7106 33.4515 48.5555 33.9087C48.4004 34.366 48.3187 35.0028 48.3187 35.8275C48.3187 36.6521 48.4004 37.289 48.5555 37.7462C48.7106 38.2034 48.9719 38.5545 49.3393 38.8076V39.1506Z" fill="white"/>
<path id="Vector_32" d="M74.8789 39.1505V38.7994C75.2463 38.5463 75.5076 38.1952 75.6627 37.738C75.826 37.2807 75.8995 36.6439 75.8995 35.8192C75.8995 34.9946 75.8179 34.3496 75.6627 33.9005C75.4994 33.4433 75.2382 33.0922 74.8789 32.8391V32.488C75.4586 32.7493 75.8913 33.1575 76.1853 33.7127C76.4792 34.2679 76.6262 34.9701 76.6262 35.8192C76.6262 36.6602 76.4792 37.3542 76.1853 37.9176C75.8832 38.4891 75.4504 38.8974 74.8789 39.1505Z" fill="white"/>
<path id="Vector_33" d="M82.856 35.1824V35.8927H81.5252V37.2073H82.856V37.9584C82.8805 38.7667 82.4886 39.1423 81.6966 39.0852H80.2841H80.2759C79.8677 39.0362 79.6717 38.7831 79.6881 38.3422V35.8029H80.3739V38.3585H81.7211C81.9007 38.334 81.9987 38.2524 82.0232 38.1135V37.9666C82.0232 37.9503 82.0151 37.9339 82.0151 37.9176H80.7332V36.0805C80.7168 35.4926 80.9455 35.1905 81.4272 35.1824H82.856ZM80.3249 40.1874H81.0679V39.4444H80.3249V40.1874ZM81.3864 40.1874H82.1294V39.4444H81.3864V40.1874Z" fill="white"/>
<path id="Vector_34" d="M84.4808 35.1824V37.346H84.8319V38.0237H84.44C84.3012 38.7667 83.8603 39.1178 83.101 39.0851V38.3585C83.4929 38.3585 83.6888 38.089 83.6807 37.542V35.1742H84.4808V35.1824Z" fill="white"/>
<path id="Vector_35" d="M84.6849 37.346H87.6651C87.7876 36.6847 87.6324 36.3499 87.216 36.3254H85.036V35.3701L87.0364 33.7617H88.1795L86.0403 35.5334H87.2405C88.0652 35.5742 88.4979 35.9662 88.5387 36.701V37.3379H88.7592L88.7674 38.0155H84.7013V37.346H84.6849Z" fill="white"/>
<path id="Vector_36" d="M91.4208 35.7131H92.2863V37.3461H93.16V35.1824H94.0254V37.3461H94.401V38.0237H88.6611V37.3461H89.6817V36.2438H90.5472V37.3461H91.4208V35.7131Z" fill="white"/>
<path id="Vector_37" d="M94.7114 33.7617H95.5442V37.346V38.0237H94.2623V37.346H94.7196L94.7114 33.7617Z" fill="white"/>
<path id="Vector_38" d="M96.8096 38.0237H95.9768V33.7617H96.8096V38.0237Z" fill="white"/>
</g>
<path id="Vector_39" d="M96.679 31.0754H48.7269V31.2469H96.679V31.0754Z" fill="white"/>
</g>
</g>
<g id="Group 1321314440">
<g id="Group_6">
<path id="Vector_40" d="M54.2353 38.22H53.521V38.9344H54.2353V38.22Z" fill="white"/>
<path id="Vector_41" d="M53.207 38.22H52.4927V38.9344H53.207V38.22Z" fill="white"/>
<path id="Vector_42" d="M55.6875 36.2105H55.2244H55.0831H53.5838V36.8541H54.0704C54.094 37.0739 53.9134 37.1917 53.5131 37.1917H52.5554V35.0094H51.8097V37.1367C51.8332 37.6313 52.1001 37.8825 52.6104 37.8746H53.7957C54.408 37.8354 54.7612 37.4978 54.8554 36.8541H55.0831H55.2244H56.4882V36.2105V34.1302H55.6875V36.2105Z" fill="white"/>
<path id="Vector_43" d="M56.4097 32.9057H55.6953V33.62H56.4097V32.9057Z" fill="white"/>
<path id="Vector_44" d="M59.8636 32.9057H59.1493V33.62H59.8636V32.9057Z" fill="white"/>
<path id="Vector_45" d="M59.322 32.0736H58.639V32.7565H59.322V32.0736Z" fill="white"/>
<path id="Vector_46" d="M58.8353 32.9057H58.121V33.62H58.8353V32.9057Z" fill="white"/>
<path id="Vector_47" d="M60.6093 36.2105H60.2874H60.1697H59.9342V34.1303H59.1335V36.2105H58.2229H58.1209H57.7834V32.7644H56.9827V36.2105V36.8542H58.1209H58.2229H60.1697H60.2874H61.4021V36.2105V32.7644H60.6093V36.2105Z" fill="white"/>
<path id="Vector_48" d="M62.6189 32.7644H61.8182V36.8542H62.6189V32.7644Z" fill="white"/>
<path id="Vector_49" d="M66.5752 35.7002C66.5124 35.0251 66.9049 34.719 67.7527 34.7661L67.5957 34.1224C67.1483 34.0203 66.7479 34.091 66.4025 34.3265C66.0493 34.5698 65.853 34.8917 65.8059 35.292C65.7824 35.7159 65.8373 36.0221 65.9708 36.2026L65.9629 36.2104C65.6097 36.2497 65.3821 36.3831 65.2957 36.6108C65.178 36.9169 65.178 37.2074 65.2957 37.49C65.4135 37.7726 65.7431 37.8982 66.2769 37.8668H67.7056V37.1681H66.3397C66.0728 37.1838 65.9394 37.1367 65.9472 37.0268C65.9551 36.9169 66.01 36.8541 66.1199 36.8463H67.9176V36.2026H67.0148C66.7715 36.1555 66.6223 35.9828 66.5752 35.7002Z" fill="white"/>
<path id="Vector_50" d="M71.9524 32.9057H71.238V33.62H71.9524V32.9057Z" fill="white"/>
<path id="Vector_51" d="M72.8001 36.2105H72.494H72.3684H72.0309V34.1303H71.2302V36.2105H70.8063H70.6571H70.4766V34.1303H70.2097C69.1578 34.1381 68.5455 34.4129 68.3728 34.9545C68.2001 35.4961 68.2394 35.9514 68.4984 36.3361C68.7575 36.7129 69.1657 36.8934 69.723 36.862C69.7701 37.0661 69.6916 37.176 69.4875 37.1917H68.3964V37.8825H69.3933C69.7858 37.906 70.0841 37.7961 70.2882 37.5685C70.4138 37.3879 70.4766 37.1524 70.4687 36.862H70.6493H70.7984H72.3527H72.4783H73.5851V36.2183V32.7801H72.7844V36.2105H72.8001ZM69.7387 36.2105C69.3698 36.2497 69.1264 36.0849 69.0008 35.7081C68.9066 35.135 69.1578 34.8289 69.7387 34.8054V36.2105Z" fill="white"/>
<path id="Vector_52" d="M74.8097 32.7644H74.009V36.8542H74.8097V32.7644Z" fill="white"/>
</g>
</g>
</g>
</svg>
