<svg width="120" height="51" viewBox="0 0 120 51" fill="none" xmlns="http://www.w3.org/2000/svg">
<g id="Group 1321314445">
<g id="Group">
<g id="Group_2">
<g id="Group_3">
<g id="Group_4">
<path id="Vector" d="M82.5701 16.8205C82.5701 15.7638 82.9321 14.8728 83.6664 14.1476C84.4007 13.4327 85.3419 13.0701 86.49 13.0701C87.638 13.0701 88.5688 13.412 89.2825 14.0854C89.9961 14.7588 90.3581 15.6498 90.3581 16.7583C90.3581 17.411 90.234 17.9912 89.9858 18.4988C89.7376 19.0065 89.4169 19.4002 89.0239 19.6799C88.2172 20.229 87.3691 20.5087 86.4796 20.5087C85.6212 20.5087 84.7731 20.2186 83.956 19.6488C83.5526 19.3691 83.2217 18.9754 82.9631 18.4885C82.6942 17.9912 82.5701 17.4317 82.5701 16.8205ZM87.0071 15.8156L86.552 15.7223C86.3555 15.7223 86.19 15.8052 86.0452 15.9813C85.9004 16.1575 85.8384 16.3543 85.8384 16.5926C85.8384 16.8309 85.9418 17.0588 86.1487 17.2867C86.3555 17.5146 86.6451 17.6286 87.0278 17.6286C87.4105 17.6286 87.7828 17.4421 88.1448 17.0795C88.5171 16.7065 88.693 16.1885 88.693 15.5151C88.693 14.8417 88.4758 14.3133 88.0414 13.9507C87.607 13.5778 87.0692 13.4017 86.4176 13.4017C86.0039 13.4017 85.6419 13.4845 85.3419 13.6399C85.042 13.8057 84.8144 13.9922 84.6593 14.2201C84.5042 14.448 84.38 14.7381 84.2973 15.0904C84.1732 15.6084 84.1111 16.2093 84.1111 16.9034C84.1111 19.0997 84.9075 20.1979 86.5106 20.1979C87.4518 20.1979 88.0827 19.8353 88.3827 19.1205C88.6412 18.5092 88.7757 17.7115 88.7757 16.7376C88.6826 17.007 88.4654 17.2763 88.1241 17.5457C87.7828 17.8151 87.4105 17.9498 87.0071 17.9498C86.6037 17.9498 86.2521 17.8151 85.9521 17.5354C85.6522 17.2556 85.5074 16.9552 85.5074 16.6029C85.5074 16.2611 85.6005 15.9813 85.7867 15.7534C85.9728 15.5255 86.2417 15.4219 86.5934 15.4219C86.945 15.4219 87.1105 15.5255 87.1105 15.7223C87.1312 15.7845 87.0898 15.8156 87.0071 15.8156Z" fill="white"/>
<path id="Vector_2" d="M98.1463 16.8309C97.9705 16.8309 97.836 16.8412 97.7326 16.8619C97.6292 16.8827 97.5568 16.9034 97.4947 16.9241C97.4223 16.9552 97.3706 16.9863 97.3396 17.0173L97.1845 16.893C97.1845 16.6444 97.2568 16.4268 97.4016 16.23C97.5464 16.0331 97.7843 15.9399 98.1153 15.9295H100.267C100.442 15.9295 100.577 15.9088 100.66 15.8467C100.701 15.8156 100.742 15.7845 100.773 15.7534L100.929 15.8777C100.929 16.1264 100.856 16.3439 100.701 16.5408C100.546 16.7376 100.308 16.8309 99.977 16.8412V19.1826H99.9977C99.8425 19.338 99.6253 19.4934 99.3564 19.6592C99.0875 19.8249 98.7876 19.9596 98.4566 20.084C98.1256 20.2083 97.774 20.3119 97.4016 20.3948C97.0293 20.4776 96.6777 20.5191 96.3363 20.5191C95.6227 20.5191 94.9711 20.4155 94.3816 20.2186C93.792 20.0114 93.2852 19.7317 92.8509 19.3587C92.4165 18.9858 92.0751 18.5507 91.8166 18.043C91.558 17.5354 91.4029 16.9863 91.3615 16.375C91.3098 15.6602 91.3822 14.9764 91.5994 14.3237C91.8062 13.6814 92.1269 13.1116 92.5613 12.6247C92.9957 12.1377 93.5438 11.744 94.2161 11.4643C94.878 11.1742 95.6434 11.0396 96.5018 11.0396C96.9776 11.0396 97.443 11.1017 97.8774 11.2157C98.3221 11.34 98.7048 11.4954 99.0461 11.7026C99.3875 11.9098 99.6564 12.1584 99.8529 12.4485C100.06 12.7386 100.153 13.0391 100.153 13.3602C100.153 13.5156 100.132 13.6814 100.07 13.8471C100.018 14.0129 99.9356 14.1683 99.8322 14.303C99.7184 14.448 99.584 14.562 99.4081 14.6449C99.2323 14.7381 99.0151 14.7796 98.7669 14.7796C98.4152 14.7796 98.136 14.6656 97.9395 14.4377C97.743 14.2098 97.6395 13.9611 97.6395 13.6814C97.6395 13.5156 97.6706 13.3706 97.7223 13.2463C97.7843 13.1219 97.8464 13.0183 97.9291 12.9355C98.0222 12.8319 98.1256 12.749 98.2394 12.6765C98.1153 12.521 97.9602 12.3864 97.774 12.262C97.6085 12.1481 97.4016 12.0445 97.1431 11.9616C96.8845 11.8787 96.5846 11.8269 96.2122 11.8269C95.7468 11.8269 95.3331 11.9409 94.9918 12.1792C94.6401 12.4174 94.3505 12.7075 94.123 13.0701C93.8851 13.4327 93.7093 13.8264 93.5955 14.2512C93.4714 14.6863 93.4197 15.1007 93.4197 15.4944C93.4197 15.971 93.5024 16.4475 93.6783 16.9137C93.8541 17.38 94.092 17.8047 94.4023 18.1777C94.7125 18.5507 95.0849 18.8511 95.5193 19.079C95.9537 19.3069 96.4398 19.4209 96.9879 19.4209C97.1844 19.4209 97.381 19.4105 97.5775 19.3795C97.774 19.3587 97.9602 19.3173 98.136 19.2655V16.8309H98.1463Z" fill="white"/>
<path id="Vector_3" d="M109.141 21.9798C109.078 21.9073 108.934 21.7933 108.696 21.6275C108.458 21.4618 108.127 21.3582 107.693 21.296V23.2644C107.693 23.4509 107.672 23.6685 107.62 23.9171C107.568 24.1658 107.486 24.3937 107.351 24.6216C107.217 24.8495 107.031 25.036 106.782 25.1914C106.534 25.3468 106.224 25.4297 105.841 25.4297C105.345 25.4297 104.952 25.3572 104.662 25.2018C104.373 25.0464 104.166 24.8703 104.021 24.6734C103.876 24.4662 103.793 24.2694 103.752 24.0829C103.711 23.8861 103.7 23.7514 103.7 23.6581C103.7 23.3991 103.752 23.1298 103.855 22.85C103.959 22.5703 104.104 22.3113 104.29 22.0523C104.476 21.7933 104.704 21.5654 104.962 21.3582C105.221 21.151 105.5 20.9852 105.8 20.8609V19.3897C105.707 19.5037 105.583 19.6384 105.438 19.7834C105.283 19.9388 105.107 20.0839 104.9 20.2289C104.693 20.374 104.466 20.4983 104.207 20.5915C103.949 20.6951 103.69 20.7366 103.4 20.7366C103.183 20.7366 102.976 20.7055 102.79 20.6537C102.594 20.5915 102.428 20.4983 102.273 20.3636C102.118 20.2289 102.004 20.0528 101.911 19.8249C101.818 19.597 101.777 19.3276 101.777 18.9857V15.8155C101.777 15.6187 101.725 15.4736 101.632 15.3907C101.528 15.3079 101.363 15.2664 101.125 15.2664V15.0489C101.239 14.9763 101.363 14.9038 101.487 14.8416C101.601 14.7898 101.725 14.738 101.859 14.6966C101.994 14.6552 102.139 14.6241 102.294 14.6241C102.78 14.6241 103.131 14.7588 103.328 15.0385C103.535 15.3182 103.628 15.6808 103.628 16.1263V18.965C103.628 19.2447 103.68 19.4416 103.773 19.5452C103.876 19.6488 104.011 19.7006 104.186 19.7006C104.321 19.7006 104.476 19.6488 104.641 19.5555C104.817 19.4519 104.972 19.3379 105.128 19.2033C105.283 19.0686 105.417 18.9443 105.531 18.8199C105.655 18.6956 105.738 18.6127 105.79 18.5609V14.9245H107.672V20.7055C107.961 20.7573 108.21 20.8402 108.417 20.9438C108.623 21.0474 108.779 21.151 108.903 21.2649C109.027 21.3789 109.12 21.4825 109.172 21.5861C109.223 21.6897 109.254 21.7726 109.254 21.8347L109.141 21.9798ZM104.672 23.5649C104.672 23.9275 104.735 24.1969 104.869 24.3833C105.003 24.5698 105.138 24.6527 105.283 24.6423C105.417 24.6423 105.541 24.5595 105.645 24.4041C105.758 24.2487 105.81 24.0311 105.81 23.7514V21.6586C105.438 21.9073 105.148 22.2181 104.962 22.591C104.766 22.9536 104.672 23.2748 104.672 23.5649Z" fill="white"/>
<path id="Vector_4" d="M109.016 20.4258V15.7948C109.016 15.5151 108.965 15.339 108.851 15.2561C108.737 15.1732 108.613 15.1421 108.468 15.1421V14.9349C108.582 14.8521 108.696 14.7795 108.81 14.7174C108.913 14.6656 109.027 14.6138 109.161 14.5723C109.296 14.5205 109.43 14.4998 109.575 14.4998C109.865 14.4998 110.123 14.5827 110.34 14.7381C110.557 14.8935 110.702 15.1732 110.764 15.5773C111.013 15.339 111.302 15.1214 111.633 14.9246C111.964 14.7277 112.336 14.6345 112.74 14.6345C113.06 14.6345 113.34 14.707 113.567 14.8417C113.795 14.9764 113.96 15.2043 114.053 15.5255C114.25 15.3183 114.498 15.1214 114.798 14.9349C115.098 14.7485 115.45 14.6552 115.853 14.6552C116.039 14.6552 116.225 14.6759 116.401 14.7277C116.577 14.7795 116.742 14.8624 116.887 14.9764C117.032 15.1007 117.146 15.2665 117.239 15.4737C117.332 15.6912 117.373 15.9502 117.373 16.2818V19.5141C117.373 19.8767 117.528 20.0632 117.828 20.0632V20.2808C117.715 20.374 117.601 20.4569 117.487 20.5191C117.384 20.5709 117.27 20.6227 117.135 20.6641C117.001 20.7055 116.867 20.7366 116.722 20.7366C116.329 20.7366 116.049 20.6123 115.884 20.374C115.719 20.1357 115.646 19.8456 115.646 19.5141V16.4579C115.646 16.1574 115.605 15.9502 115.522 15.8466C115.439 15.7327 115.305 15.6809 115.129 15.6809C114.963 15.6809 114.798 15.743 114.622 15.8674C114.446 15.9917 114.291 16.1264 114.146 16.2714V20.4258H112.45V16.4579C112.45 16.2196 112.419 16.0331 112.347 15.8984C112.274 15.7638 112.14 15.6912 111.933 15.6912C111.757 15.6912 111.571 15.7534 111.364 15.8881C111.157 16.0228 110.971 16.1678 110.795 16.3439V20.4155H109.016V20.4258Z" fill="white"/>
</g>
</g>
<path id="Vector_5" d="M60.7367 13.4948L61.5538 13.4326C61.771 13.4326 61.8744 13.5052 61.8744 13.6295C61.8744 13.8056 61.7503 13.8885 61.4917 13.8885C61.2435 13.8885 60.9849 13.8574 60.7367 13.7952C59.992 14.0232 59.3611 14.3961 58.8336 14.9245C57.5511 16.1988 57.8511 18.5298 59.4438 19.4104C59.8782 19.6487 60.385 19.773 60.8815 19.773C61.5434 19.773 62.1743 19.6073 62.7845 19.2654C63.0845 19.0996 63.3327 18.8614 63.5292 18.5505C63.7257 18.2397 63.8188 17.8875 63.8188 17.4834C63.8188 16.8826 63.6223 16.406 63.2189 16.0641C62.8259 15.7222 62.4019 15.5461 61.9675 15.5461C61.5848 15.5461 61.1504 15.629 60.8298 15.8569C60.4885 16.1056 60.354 16.6857 60.716 16.9965C60.8401 17.1001 60.9125 17.1726 60.9125 17.1934C60.9125 17.2555 60.8504 17.2866 60.716 17.2866C60.4471 17.2866 60.3023 16.9447 60.2609 16.7272C60.1161 16.0434 60.6539 15.5565 61.2538 15.37C61.9675 15.1421 62.7432 15.3389 63.3327 15.7844C64.5428 16.6961 64.3049 18.6127 63.1155 19.4001C61.3366 20.5811 58.3785 20.2496 57.034 18.5505C56.5065 17.8875 56.341 17.0069 56.6099 16.1988C57.0547 14.852 58.5337 14.1578 59.7748 13.7124C59.0715 13.6606 58.4716 13.4326 57.9648 13.0389C57.2615 12.4795 57.034 11.5056 57.458 10.6976C57.9855 9.68226 59.1232 9.16426 60.2092 9.02958C61.2745 8.89489 62.7121 9.01921 63.281 10.0863C63.4775 10.4593 63.4568 10.884 63.2086 11.2259C62.9604 11.5678 62.5156 11.6818 62.1123 11.6093C61.7813 11.5575 61.2021 11.2881 61.2021 10.884C61.2021 10.6976 61.3159 10.5422 61.4607 10.7597C61.502 10.8322 61.5538 10.9151 61.5951 10.998C61.6365 11.0809 61.7192 11.1638 61.8434 11.2363C61.9675 11.3088 62.1329 11.3399 62.3398 11.3399C62.5467 11.3399 62.7225 11.2777 62.8673 11.143C63.0121 11.0187 63.0845 10.8322 63.0845 10.594C63.0845 10.1899 62.888 9.86875 62.5053 9.6201C61.5951 9.0503 60.2195 9.11245 59.4128 9.85839C58.9784 10.2521 58.7612 10.739 58.7612 11.3088C58.7612 11.8786 58.9474 12.3448 59.3094 12.6971C59.6921 13.07 60.1575 13.329 60.7367 13.4948Z" fill="white"/>
<path id="Vector_6" d="M68.018 20.0735C67.687 20.0735 67.3457 20.0424 67.0251 19.9596C66.1356 19.7316 65.1427 19.1929 65.1117 18.1673C65.1117 18.1465 65.1117 18.1258 65.1117 18.1154C65.1117 17.9497 65.1531 17.7943 65.2358 17.6492C65.3185 17.5042 65.422 17.4317 65.5564 17.4317C65.6805 17.4317 65.784 17.4731 65.8564 17.556C65.9288 17.6389 65.9598 17.7218 65.9598 17.8046C65.9598 17.8875 65.9081 18.0015 65.8047 18.1569C65.7012 18.3019 65.6495 18.4263 65.6495 18.5195C65.6495 19.0168 66.2701 19.3172 66.6631 19.483C67.6146 19.887 68.6489 19.887 69.5073 19.2861C69.9728 18.9546 70.2107 18.5402 70.2107 18.0326C70.2107 17.1002 69.0419 16.8412 68.3179 16.7168C67.7077 16.6132 67.0665 16.5718 66.4769 16.3439C65.6495 16.0227 65.06 15.1317 65.2461 14.2408C65.5875 12.6039 67.5939 12.1376 69.0109 12.5106C69.6935 12.6867 70.6761 13.1219 70.6554 13.961C70.6451 14.2511 70.3141 14.5205 70.0659 14.3754C69.8073 14.22 69.9521 13.7953 69.7763 13.557C69.0006 12.5106 67.1389 12.8007 66.3528 13.4223C66.177 13.5673 66.0115 13.7538 65.9288 13.961C65.7012 14.5101 66.3115 14.7795 66.7252 14.9038C67.1699 15.0385 67.6663 15.0488 68.1214 15.1421C69.0936 15.3182 70.0659 15.5254 70.5726 16.4578C70.9657 17.1623 70.9553 18.0429 70.5726 18.7371C70.4589 18.9443 70.3244 19.1307 70.1589 19.2861C69.6211 19.8352 68.773 20.0632 68.018 20.0735Z" fill="white"/>
<path id="Vector_7" d="M71.3896 13.0493V12.7385H72.8169V10.6147H74.3683V12.7385H75.9922V13.0493H74.3683V17.8461C74.3683 19.1307 74.6476 19.773 75.2061 19.773C75.4233 19.773 75.6198 19.7005 75.806 19.5658C75.9922 19.4208 76.137 19.2861 76.2404 19.1514C76.3438 19.0064 76.4162 18.9442 76.4576 18.9442C76.499 18.9442 76.5196 18.965 76.5196 19.0168C76.5196 19.0582 76.5093 19.1204 76.4783 19.1825C75.9611 20.2185 74.4511 20.3843 73.6133 19.6798C72.9411 19.1204 72.8169 18.1258 72.8169 17.297V13.0597H71.3896V13.0493Z" fill="white"/>
<path id="Vector_8" d="M82.6529 13.3291C82.6529 13.443 82.6115 13.5259 82.5185 13.5881C82.4254 13.6502 82.322 13.6813 82.1875 13.6813C82.053 13.6813 81.9496 13.6399 81.8669 13.5674C81.7841 13.4948 81.7324 13.4016 81.7014 13.3083C81.5773 12.8629 80.9567 12.8836 80.6257 13.0286C80.2638 13.1944 79.9948 13.5156 79.788 13.8574C79.3846 14.5308 79.1261 15.3907 79.1261 16.1781V19.9181H77.5746V12.7282H79.1261V14.5619C79.3743 13.961 79.6949 13.4638 80.0983 13.0597C80.4499 12.7075 80.9671 12.4692 81.4842 12.4692C81.9703 12.4795 82.6529 12.7282 82.6529 13.3291Z" fill="white"/>
</g>
<g id="Group_5">
<path id="Vector_9" d="M62.5156 34.8885V36.3493C62.5156 36.4114 62.4743 36.4632 62.4122 36.4632C61.771 36.4632 61.2952 36.3389 60.9332 36.0903C60.323 36.4011 59.7955 36.5565 59.237 36.5565C57.7994 36.5565 56.7858 35.4479 56.7858 34.0079C56.7858 32.5678 57.8097 31.3453 59.237 31.3453C59.568 31.3453 59.8886 31.4178 60.2609 31.5422V30.9931L61.833 30.7962L61.8434 34.1633C61.8434 34.6088 62.0502 34.7952 62.4122 34.7952C62.4743 34.7849 62.5156 34.8263 62.5156 34.8885ZM58.5337 30.6408L57.4787 29.5841L58.5233 28.5377L59.3197 29.3147L60.1058 28.5377L61.1607 29.5841L60.1265 30.6408L59.3197 29.8535L58.5337 30.6408ZM60.292 34.816C60.2713 34.6813 60.2713 34.5362 60.2713 34.3808L60.2609 33.0755C59.9403 32.9615 59.63 32.889 59.3197 32.889C58.6785 32.889 58.2544 33.3345 58.2544 33.9561C58.2544 34.5259 58.6681 34.961 59.2473 34.9817C59.6197 34.9921 59.9817 34.9299 60.292 34.816Z" fill="white"/>
<path id="Vector_10" d="M64.1084 31.5214L65.6805 31.3246V34.329C65.6805 35.7276 64.8841 36.4529 63.2603 36.4529H62.4122C62.3501 36.4529 62.3088 36.4011 62.3088 36.3389L62.3295 34.8781C62.3295 34.816 62.3708 34.7745 62.4329 34.7745H63.281C63.8498 34.7745 64.1188 34.4637 64.1188 33.7385L64.1084 31.5214ZM64.0981 30.7548L63.0328 29.7188L64.0774 28.6724L64.8738 29.4494L65.6598 28.6724L66.7251 29.7188L65.6805 30.7548L64.8841 29.9778L64.0981 30.7548ZM64.8841 28.9625L64.2222 28.2891L64.8738 27.6157L65.5564 28.2891L64.8841 28.9625Z" fill="white"/>
<path id="Vector_11" d="M72.2274 34.8884V36.3492C72.2274 36.4114 72.186 36.4632 72.124 36.4632H71.6275C71.4827 38.0379 69.8382 38.6388 67.4904 38.6388L67.325 37.3541C69.0108 37.3541 69.8486 37.1159 70.0348 36.4632H69.1867C67.749 36.4632 66.7975 35.4582 66.7975 33.9457C66.7975 32.4538 67.8835 31.3349 69.2797 31.3349C70.6346 31.3349 71.6379 32.2984 71.6379 33.8628V34.7952H72.124C72.186 34.7848 72.2274 34.8263 72.2274 34.8884ZM69.3315 34.8781C69.559 34.8781 69.8176 34.8573 70.0761 34.8366V33.9664C70.0761 33.3137 69.7038 32.92 69.1556 32.92C68.6488 32.92 68.2041 33.293 68.2041 33.8835C68.2144 34.5465 68.7109 34.8781 69.3315 34.8781Z" fill="white"/>
<path id="Vector_12" d="M72.0309 36.3389L72.0516 34.8781C72.0516 34.816 72.0929 34.7745 72.155 34.7745C72.7238 34.7745 72.9928 34.4637 72.9928 33.7385L72.9824 31.5007L74.5545 31.3039V34.3083C74.5545 35.7069 73.7581 36.4321 72.1343 36.4321C72.0723 36.4529 72.0309 36.4011 72.0309 36.3389ZM72.6721 29.5426L73.7271 28.4963L74.782 29.5426L73.7374 30.589L72.6721 29.5426Z" fill="white"/>
<path id="Vector_13" d="M80.998 29.0661L80.9876 34.3083C80.9876 35.738 80.1913 36.4528 78.5675 36.4528H75.3819L75.1544 34.7848H76.8919L76.1162 30.7962L77.6573 30.4025L78.3503 34.7848H78.5571C78.5675 34.7848 78.5675 34.7848 78.5675 34.7848C79.1466 34.7848 79.4052 34.4637 79.4052 33.7385L79.4156 29.2525L80.998 29.0661ZM77.9055 29.9052H75.506V29.0557H75.9404C75.8577 28.9003 75.8266 28.7449 75.8266 28.5584C75.8266 28.03 76.2403 27.6364 76.8195 27.6364C77.1505 27.6364 77.5022 27.74 77.7297 27.8436V28.6102C77.4815 28.5066 77.2436 28.4548 77.0884 28.4548C76.8609 28.4548 76.7058 28.5688 76.7058 28.7345C76.7058 28.8588 76.7368 28.9521 76.8092 29.0453H78.102L77.9055 29.9052Z" fill="white"/>
<path id="Vector_14" d="M82.415 29.2525L83.9871 29.066V36.4528H82.415V29.2525Z" fill="white"/>
<path id="Vector_15" d="M94.5987 31.3245V34.329C94.5987 35.7069 93.8126 36.4321 92.2405 36.4528H92.2302H89.5928C87.9276 36.4528 87.0795 35.6965 87.0795 34.1632C87.0795 33.7799 87.1312 33.1686 87.276 32.5263L88.6309 32.6921C88.5585 33.1686 88.5275 33.4691 88.5275 33.6866C88.5275 34.4533 88.9826 34.7848 89.9962 34.7848H92.1992C92.7784 34.7848 93.0473 34.474 93.0473 33.7488L93.0369 31.511L94.5987 31.3245ZM89.9858 31.9047L88.9309 30.8479L89.9755 29.8016L90.7719 30.5786L91.5579 29.8016L92.6129 30.8479L91.5786 31.9047L90.7719 31.1173L89.9858 31.9047Z" fill="white"/>
<path id="Vector_16" d="M95.8295 34.3083L95.8192 29.2525L97.3912 29.066L97.4016 33.7385C97.4016 34.4533 97.6602 34.7848 98.2393 34.7848C98.3014 34.7848 98.3428 34.8263 98.3428 34.8884L98.3531 36.3492C98.3531 36.4114 98.3117 36.4632 98.2497 36.4632C96.6259 36.4528 95.8295 35.738 95.8295 34.3083Z" fill="white"/>
<path id="Vector_17" d="M101.839 34.8885V36.3493C101.839 36.4115 101.797 36.4633 101.735 36.4633C101.135 36.4633 100.608 36.2353 100.194 35.8209C99.7908 36.2457 99.1392 36.4633 98.26 36.4633C98.198 36.4633 98.1566 36.4115 98.1566 36.3493L98.1773 34.8885C98.1773 34.8264 98.2187 34.7849 98.2807 34.7849C98.8496 34.7849 99.1185 34.4741 99.1185 33.7489L99.1081 32.5368L100.68 32.3503V34.3187V34.4845C100.98 34.671 101.321 34.7746 101.735 34.7746C101.797 34.7849 101.839 34.8264 101.839 34.8885ZM99.9666 37.002L101.022 38.0484L99.9769 39.0947L98.9116 38.0484L99.9666 37.002Z" fill="white"/>
<path id="Vector_18" d="M104.104 39.0533L103.369 38.3384L102.656 39.0533L101.59 38.0069L102.625 36.9709L103.359 37.6857L104.073 36.9709L105.128 38.0173L104.104 39.0533ZM101.632 36.3389L101.652 34.8781C101.652 34.816 101.694 34.7745 101.756 34.7745H102.604C103.173 34.7745 103.442 34.4637 103.442 33.7385L103.431 31.5007L105.003 31.3039V34.3083C105.003 35.707 104.207 36.4322 102.583 36.4322H101.735C101.673 36.4529 101.632 36.4011 101.632 36.3389Z" fill="white"/>
<path id="Vector_19" d="M105.334 37.3438C106.151 37.3438 106.751 37.0227 106.751 36.1524L106.741 31.5214L108.313 31.3246V36.2249C108.313 37.9758 107.372 38.6285 105.448 38.6285L105.334 37.3438Z" fill="white"/>
<path id="Vector_20" d="M114.922 34.8885V36.3493C114.922 36.4114 114.881 36.4632 114.819 36.4632C114.229 36.4632 113.722 36.256 113.319 35.852C112.916 36.256 112.274 36.4632 111.416 36.4632H109.151L108.913 34.7953H111.437C112.005 34.7953 112.274 34.4844 112.274 34.0182V33.6971C112.264 33.1584 111.819 32.7957 111.178 32.7957H110.495V31.1796H111.55C112.926 31.1796 113.878 32.0084 113.878 33.552V34.3394C113.878 34.4119 113.878 34.4845 113.867 34.5466C114.136 34.702 114.446 34.7849 114.839 34.7849C114.881 34.7849 114.922 34.8263 114.922 34.8885Z" fill="white"/>
<path id="Vector_21" d="M116.515 31.5214L118.087 31.3246V34.329C118.087 35.7276 117.291 36.4528 115.667 36.4528H114.819C114.757 36.4528 114.715 36.401 114.715 36.3389L114.736 34.8781C114.736 34.8159 114.777 34.7745 114.839 34.7745H115.688C116.256 34.7745 116.525 34.4637 116.525 33.7385L116.515 31.5214ZM116.484 30.734L115.419 29.6877L116.463 28.6413L117.26 29.4183L118.046 28.6413L119.111 29.6877L118.066 30.734L117.27 29.957L116.484 30.734Z" fill="white"/>
</g>
</g>
<g id="Group_6">
<path id="Vector_22" d="M23.5753 3.35223C23.4926 3.30043 23.3995 3.27971 23.3064 3.26935C23.3685 3.52835 23.4202 3.79772 23.5133 4.04636C23.5546 4.17068 23.596 4.30536 23.627 4.42968C23.7822 4.30536 23.8856 4.12924 23.8856 3.91168C23.8856 3.67339 23.7511 3.46619 23.5753 3.35223Z" fill="white"/>
<path id="Vector_23" d="M31.9012 14.5412C31.2496 13.6191 30.598 12.7074 29.9465 11.7854C29.781 11.5471 29.6258 11.3088 29.45 11.0809C29.45 11.0809 27.9193 9.07103 26.5127 8.66698C25.6335 8.49086 24.7648 8.31474 23.8856 8.13861C23.7201 7.29944 23.9477 6.36703 24.6406 5.81794C24.6406 5.81794 26.5437 6.43955 26.0473 5.06165C26.0473 5.06165 26.4506 5.04093 26.2024 4.70941C26.2024 4.70941 26.0886 4.62653 26.2644 4.54365C26.2644 4.54365 26.5954 4.36752 26.2748 4.0878C26.2748 4.0878 26.2644 3.99456 26.3575 3.94276C26.3575 3.94276 26.8747 3.8288 26.8747 3.68375C26.8747 3.68375 26.7402 3.31079 26.2334 2.52342C26.2334 2.52342 26.5437 2.3473 26.5437 2.19189H26.2955C26.3162 1.90181 26.3058 1.60137 26.2748 1.30092C26.2438 1.01084 26.2024 0.710393 26.0783 0.441029C25.9542 0.171666 25.7577 0.0162647 25.4474 -0.00445557C25.4267 -0.00445557 25.406 -0.00445557 25.3853 -0.00445557C25.3957 -0.00445557 25.4163 -0.00445557 25.4267 -0.00445557C25.2922 0.0266249 25.1474 0.0577046 25.013 0.0887851L23.2133 2.87566V2.88602C23.234 2.87566 23.2651 2.8653 23.2754 2.89638C23.2857 2.90674 23.2754 2.92746 23.2754 2.93782C23.2754 2.97926 23.2754 3.0207 23.2651 3.06214V3.07251C23.4719 3.08287 23.6477 3.16575 23.7925 3.29007C23.7822 3.27971 23.7719 3.25899 23.7615 3.24863C23.7822 3.25899 23.7822 3.27971 23.8029 3.29007C23.8753 3.35223 23.927 3.41439 23.9787 3.48691C24.0097 3.52835 24.0408 3.56979 24.0614 3.62159C24.0925 3.69411 24.1028 3.777 24.1132 3.84952C24.1235 3.91168 24.1545 3.95312 24.1545 4.01528C24.1545 4.35716 23.958 4.63689 23.6995 4.80265C23.7408 5.10309 23.7305 5.4139 23.6477 5.75578C23.4823 6.43955 23.2133 7.11296 23.0272 7.79673C23.0272 7.79673 22.5928 8.77058 23.4616 9.73408C23.4616 9.73408 25.9335 12.0858 24.5579 17.442C24.1235 19.1411 24.7441 20.7987 26.13 21.8036C26.9574 22.4045 27.4849 23.3369 27.7021 24.3212C27.94 25.3882 27.8365 26.5071 27.5883 27.5639C27.5883 27.5639 26.2127 35.4583 25.9645 37.9655C25.9645 37.9655 25.1785 46.0464 27.971 50.3044C27.971 50.3044 25.3439 41.9748 27.971 33.5417C27.971 33.5417 29.3983 28.0922 29.3776 27.5224L29.419 27.8954C29.419 27.8954 30.3498 23.9275 30.8773 23.4198C31.4772 22.218 32.0771 21.0266 32.6666 19.8249C33.0182 19.1307 33.5147 18.447 33.6181 17.6596C33.7112 16.9862 33.3078 16.406 32.9148 15.8984C32.5632 15.4736 32.2322 15.0177 31.9012 14.5412ZM30.1119 22.2491L29.3569 23.1297C29.3362 22.477 28.9018 21.8554 28.5502 21.3478C28.0641 20.664 27.4952 20.0321 26.9057 19.4312C26.5954 19.1204 26.2748 18.851 26.0679 18.447C25.8094 17.9393 25.7887 17.3591 25.9955 16.8308C26.161 16.4164 26.4506 15.9398 26.8023 15.6601C28.6743 14.1579 27.2263 12.666 27.2263 12.666C30.7946 16.4578 31.5909 17.8979 31.5909 17.8979L30.1119 22.2491Z" fill="white"/>
<path id="Vector_24" d="M53.6313 24.6423L53.5485 23.482L53.5382 23.3369L53.5175 23.1919L53.4865 22.9018L53.4141 22.3216C53.0004 19.2343 52.0385 16.2195 50.5698 13.4741C49.8355 12.1065 48.9874 10.8012 48.0255 9.58902C47.798 9.27822 47.5394 8.98813 47.2912 8.69805C47.1671 8.55301 47.0429 8.3976 46.9085 8.26292L46.5155 7.83816C46.381 7.70347 46.2466 7.55843 46.1121 7.42375L45.6984 7.0197L45.2847 6.61566C45.1399 6.48098 44.9951 6.35666 44.8503 6.23233C42.5439 4.20175 39.8858 2.5752 37.0415 1.51847C35.6246 0.990103 34.1559 0.596416 32.6769 0.337413C31.1979 0.0784093 29.7086 -0.0355513 28.2296 0.0162494C29.6775 0.306333 31.1048 0.668938 32.4701 1.1455C33.8456 1.62207 35.1695 2.19188 36.4417 2.85493C38.9756 4.18103 41.2717 5.91117 43.2368 7.9314C43.3609 8.05572 43.4851 8.18004 43.6092 8.30436L43.9608 8.69805L44.3125 9.09173L44.6434 9.49578L44.9744 9.89983C45.0882 10.0345 45.1916 10.1795 45.295 10.3142C45.5019 10.594 45.7294 10.8633 45.9156 11.1638C46.7223 12.3137 47.4463 13.5052 48.0565 14.7587C49.277 17.2659 50.0837 19.9492 50.456 22.705L50.5181 23.223L50.5491 23.482L50.5698 23.6063L50.5802 23.741L50.6629 24.777L50.6939 25.8234C50.7043 25.9995 50.6939 26.1756 50.6939 26.3414L50.6836 26.8594V26.9941L50.6732 27.1287L50.6629 27.3877L50.6422 27.9057C50.6215 28.2476 50.5802 28.5999 50.5595 28.9418C50.5181 29.2836 50.4767 29.6359 50.425 29.9778C50.363 30.3197 50.3216 30.6615 50.2595 31.0034C50.0113 32.371 49.6286 33.7178 49.1632 35.0439C49.1012 35.2096 49.0494 35.3754 48.9874 35.5412L48.7909 36.0281C48.6668 36.3596 48.5116 36.6704 48.3772 36.9916C48.3048 37.1574 48.2324 37.3128 48.16 37.4682L47.9324 37.9447C47.7773 38.2555 47.6015 38.5663 47.4463 38.8771C46.0811 41.3429 44.3228 43.6014 42.2336 45.5698C41.189 46.554 40.0616 47.4553 38.8619 48.2738C37.6621 49.0922 36.4003 49.8278 35.0661 50.4909C36.5037 50.1386 37.9103 49.631 39.2652 48.9886C40.6201 48.3463 41.9233 47.5797 43.1541 46.6887C45.6053 44.9067 47.7463 42.6482 49.4425 40.0789C49.6493 39.7578 49.8562 39.4262 50.0527 39.0947L50.3423 38.5974C50.4354 38.4317 50.5388 38.2659 50.6215 38.0898L50.8904 37.5718C50.9835 37.406 51.0663 37.2299 51.1387 37.0538L51.3869 36.5254C51.4696 36.3493 51.542 36.1731 51.6144 35.997C52.2247 34.5777 52.6901 33.0858 53.0314 31.5732C53.3727 30.0607 53.5795 28.5066 53.6416 26.9526L53.6623 26.3724C53.6623 26.1756 53.6726 25.9788 53.6726 25.7923L53.6313 24.6423Z" fill="white"/>
<path id="Vector_25" d="M25.375 0.0162115C23.9063 -0.0252291 22.4376 0.0887315 20.969 0.337375C19.49 0.586018 18.0316 0.990065 16.6043 1.51843C13.7601 2.57517 11.102 4.19135 8.79559 6.2323C8.6508 6.35662 8.506 6.48094 8.3612 6.61562L7.94749 7.01967L7.53378 7.42371C7.39933 7.55839 7.26487 7.70344 7.13042 7.83812L6.73739 8.26288C6.60294 8.40792 6.48917 8.55297 6.35471 8.69801C6.10649 8.99845 5.84792 9.27818 5.62038 9.58898C4.65851 10.8011 3.8104 12.1065 3.07607 13.474C1.61775 16.2091 0.645533 19.2239 0.231824 22.3112L0.159425 22.8914L0.128397 23.1815L0.107711 23.3265L0.0973687 23.4716L0.0249696 24.6423L0.00428409 25.813C-0.00605863 26.0098 0.00428412 26.2066 0.0146268 26.3931L0.0353124 26.9733C0.0973687 28.5273 0.304223 30.0813 0.645533 31.5939C0.986842 33.1065 1.45226 34.5984 2.06248 36.0177C2.13488 36.1938 2.20728 36.3803 2.29002 36.5461L2.53825 37.0744C2.62099 37.2506 2.70373 37.4267 2.78647 37.5924L3.05539 38.1104C3.13813 38.2866 3.24155 38.4523 3.33464 38.6181L3.62423 39.1154C3.82075 39.4469 4.0276 39.7681 4.23446 40.0996C5.92032 42.6689 8.05092 44.9274 10.5021 46.7094C11.7329 47.6003 13.0361 48.367 14.391 49.0093C15.7459 49.6516 17.1525 50.1593 18.5901 50.5115C17.2663 49.8485 15.9941 49.1129 14.7944 48.2945C13.5946 47.4657 12.4673 46.5643 11.4226 45.5905C9.33341 43.622 7.57515 41.3635 6.20991 38.8978C6.04443 38.587 5.87895 38.2762 5.72381 37.9654L5.49627 37.4888C5.42387 37.3334 5.34113 37.178 5.27907 37.0123C5.14461 36.6911 4.98947 36.3699 4.86536 36.0488L4.66885 35.5619C4.60679 35.3961 4.54474 35.2303 4.49302 35.0646C4.0276 33.7488 3.64492 32.402 3.39669 31.0241C3.33464 30.6822 3.28293 30.3403 3.23121 29.9985C3.1795 29.6566 3.14847 29.3043 3.09676 28.9624C3.06573 28.6102 3.0347 28.2683 3.01401 27.9264L2.99333 27.4084L2.98299 27.1494L2.97264 27.0147V26.8801L2.9623 26.362C2.9623 26.1859 2.95196 26.0098 2.9623 25.844L2.99333 24.7977L3.07607 23.7617L3.08641 23.627L3.1071 23.5026L3.13813 23.2436L3.20018 22.7256C3.57252 19.9698 4.3896 17.2866 5.59969 14.7794C6.20991 13.5258 6.9339 12.3344 7.74064 11.1844C7.93715 10.8944 8.15434 10.625 8.3612 10.3349C8.46463 10.2002 8.56805 10.0552 8.68182 9.9205L9.01279 9.51646L9.34376 9.11242L9.69541 8.71873L10.0471 8.32504C10.1712 8.20072 10.2953 8.0764 10.4194 7.95208C12.3845 5.93185 14.6703 4.21207 17.2146 2.87561C18.4867 2.2022 19.8106 1.64275 21.1862 1.16619C22.4273 0.74142 23.7098 0.409896 25.013 0.130172L25.0647 0.0472922C25.1578 0.0265719 25.2612 0.0162115 25.375 0.0162115Z" fill="white"/>
<path id="Vector_26" d="M25.375 0.0162964C25.2715 0.0162964 25.1681 0.0266562 25.0543 0.0370164L25.0026 0.119898C25.1371 0.0888174 25.2715 0.0473759 25.4163 0.0266556C25.406 0.0162954 25.3853 0.0162964 25.375 0.0162964Z" fill="white"/>
<path id="Vector_27" d="M23.689 4.77154C23.6684 4.65758 23.6477 4.54362 23.627 4.42966C23.5132 4.5229 23.3684 4.58506 23.2029 4.58506C23.0271 4.58506 22.872 4.51254 22.7582 4.39858C22.7685 4.40894 22.7685 4.4193 22.7789 4.42966C22.7685 4.4193 22.7582 4.40894 22.7479 4.39858C22.7272 4.37786 22.7168 4.3675 22.7065 4.34678C22.5824 4.22246 22.4893 4.05669 22.4893 3.87021C22.4893 3.49725 22.7996 3.1968 23.1719 3.1968C23.2133 3.1968 23.2547 3.20716 23.296 3.21752C23.2857 3.18644 23.2753 3.15536 23.2753 3.12428C23.2753 3.13464 23.2753 3.145 23.265 3.145C23.2547 3.16572 23.234 3.17608 23.2236 3.16572C23.2029 3.15536 23.2029 3.13464 23.2029 3.11392C23.2029 3.10356 23.2029 3.10356 23.2029 3.0932C22.6961 3.10356 22.2824 3.50761 22.2721 4.02561C22.2721 4.3675 22.4583 4.65758 22.7272 4.82334C22.8616 4.89587 23.0064 4.94767 23.1719 4.94767C23.3581 4.94767 23.5339 4.87514 23.689 4.77154ZM22.934 4.85442C22.903 4.85442 22.872 4.84406 22.8409 4.82334C22.8306 4.81298 22.8099 4.81298 22.7996 4.80262C22.7685 4.79226 22.7375 4.77154 22.7168 4.75082C22.6961 4.7301 22.6755 4.69902 22.6858 4.65758C22.6961 4.60578 22.7685 4.66794 22.8099 4.6783C22.8409 4.6783 22.872 4.68866 22.8927 4.68866C22.9237 4.68866 22.9547 4.69902 22.9754 4.71974C23.0064 4.74046 23.0168 4.77154 23.0168 4.80262C22.9961 4.8337 22.9651 4.85442 22.934 4.85442Z" fill="white"/>
<path id="Vector_28" d="M23.2858 3.21754C23.3995 3.23826 23.5133 3.2797 23.6064 3.36258C23.596 3.35222 23.5857 3.36258 23.5754 3.35222C23.7615 3.47654 23.8856 3.67338 23.8856 3.91167C23.8856 4.11887 23.7822 4.30535 23.6271 4.42967C23.6581 4.54363 23.6788 4.6576 23.6891 4.77156C23.9374 4.6058 24.1028 4.33643 24.1028 4.01527C24.1028 3.73554 23.9787 3.49726 23.7926 3.32114C23.6478 3.19682 23.4616 3.11394 23.2651 3.10358C23.2651 3.11394 23.2651 3.11394 23.2651 3.1243C23.2651 3.15538 23.2858 3.18646 23.2858 3.21754Z" fill="white"/>
<path id="Vector_29" d="M23.2134 3.22791C22.841 3.22791 22.5308 3.52835 22.5308 3.90131C22.5308 4.00492 22.5618 4.10852 22.6032 4.1914C22.5618 4.10852 22.5411 4.00491 22.5411 3.91167C22.5411 3.52835 22.8514 3.22791 23.2134 3.22791C23.2548 3.23827 23.2754 3.25899 23.3065 3.25899C23.3065 3.24863 23.3065 3.24862 23.3065 3.23826C23.2651 3.23826 23.2444 3.22791 23.2134 3.22791Z" fill="white"/>
<path id="Vector_30" d="M22.696 4.34681C22.7064 4.36753 22.727 4.37789 22.7373 4.39861C22.7373 4.39861 22.7476 4.39861 22.7476 4.40897C22.696 4.35717 22.6548 4.29501 22.6135 4.23285C22.6444 4.26393 22.6651 4.30537 22.696 4.34681Z" fill="white"/>
<path id="Vector_31" d="M23.2961 3.259C23.3894 3.26936 23.4931 3.30044 23.5657 3.34188C23.4828 3.29008 23.3894 3.24864 23.2857 3.23828C23.2961 3.24864 23.2961 3.259 23.2961 3.259Z" fill="white"/>
<path id="Vector_32" d="M22.7686 4.42959C22.7582 4.41925 22.7582 4.40892 22.7479 4.39858C22.7479 4.39858 22.7375 4.39858 22.7375 4.38824C22.7582 4.39858 22.7582 4.41925 22.7686 4.42959Z" fill="white"/>
<path id="Vector_33" d="M22.6031 4.19135C22.5617 4.09811 22.5307 4.00487 22.5307 3.90127C22.5307 3.5283 22.841 3.22786 23.2133 3.22786C23.2444 3.22786 23.265 3.23822 23.2961 3.24858C23.2961 3.23822 23.2857 3.22786 23.2857 3.2175C23.2444 3.20714 23.203 3.19678 23.1616 3.19678C22.7893 3.19678 22.479 3.49722 22.479 3.87019C22.479 4.05667 22.5617 4.22243 22.6962 4.34675C22.6652 4.31567 22.6445 4.27423 22.6135 4.23279C22.6135 4.21207 22.6031 4.20171 22.6031 4.19135Z" fill="white"/>
<path id="Vector_34" d="M23.5761 3.35221C23.5865 3.36257 23.5969 3.35221 23.6072 3.36257C23.5243 3.29005 23.4102 3.23825 23.2857 3.21753C23.2857 3.22789 23.2857 3.23825 23.2961 3.24861C23.3998 3.25897 23.4931 3.29005 23.5761 3.35221Z" fill="white"/>
<path id="Vector_35" d="M22.6031 4.77155C22.6548 4.81299 22.727 4.84407 22.7889 4.87515C22.758 4.86479 22.7373 4.84407 22.7167 4.82335C22.6754 4.80263 22.6341 4.79227 22.6031 4.77155Z" fill="white"/>
<path id="Vector_36" d="M23.1926 4.97877C23.0685 4.97877 22.9444 4.94769 22.8409 4.90625C22.9547 4.95805 23.0685 4.98913 23.1926 4.97877C23.3891 4.98913 23.5546 4.92697 23.6994 4.83373V4.82336C23.5546 4.91661 23.3891 4.98913 23.1926 4.97877Z" fill="white"/>
<path id="Vector_37" d="M24.1545 4.05669C24.1545 3.99453 24.1235 3.94273 24.1131 3.89093C24.1235 3.94273 24.1545 3.98417 24.1545 4.05669C24.1441 4.37786 23.958 4.65758 23.6994 4.82334V4.8337C23.9683 4.66794 24.1545 4.38822 24.1545 4.05669Z" fill="white"/>
<path id="Vector_38" d="M23.7719 3.27972C23.7822 3.29006 23.7925 3.31073 23.8029 3.32107C23.8029 3.32107 23.8132 3.32107 23.8132 3.3314C23.7925 3.31073 23.7822 3.29006 23.7719 3.27972Z" fill="white"/>
<path id="Vector_39" d="M23.6994 4.82335C23.6994 4.80263 23.6891 4.78191 23.6891 4.77155C23.534 4.87515 23.3581 4.95803 23.1513 4.95803C22.9858 4.95803 22.841 4.90623 22.7065 4.83371C22.7376 4.85443 22.7583 4.87515 22.7789 4.88551C22.7996 4.89587 22.81 4.90623 22.8307 4.91659C22.9444 4.95803 23.0582 4.98911 23.1823 4.98911C23.3892 4.98911 23.5546 4.91659 23.6994 4.82335Z" fill="white"/>
<path id="Vector_40" d="M23.6891 4.77157C23.6891 4.79229 23.6994 4.81301 23.6994 4.82337C23.958 4.65761 24.1442 4.37788 24.1545 4.04636C24.1545 3.99456 24.1338 3.94276 24.1235 3.8806C24.1131 3.79772 24.1028 3.7252 24.0718 3.65267C24.0511 3.60087 24.0201 3.56979 23.989 3.51799C23.9373 3.44547 23.8856 3.37295 23.8132 3.32115C23.8132 3.32115 23.8029 3.32115 23.8029 3.31079C23.989 3.48691 24.1131 3.7252 24.1131 4.00492C24.1028 4.33644 23.927 4.59545 23.6891 4.77157Z" fill="white"/>
<path id="Vector_41" d="M22.8829 4.69902C22.8518 4.69902 22.8207 4.68866 22.7999 4.68866C22.7688 4.6783 22.6962 4.61614 22.6755 4.66794C22.6651 4.69902 22.6859 4.7301 22.7066 4.76118C22.7273 4.7819 22.7585 4.80262 22.7896 4.81298C22.7999 4.82334 22.8207 4.82334 22.8311 4.8337C22.8622 4.84406 22.8933 4.86479 22.9244 4.86479C22.9555 4.86479 22.997 4.84406 22.997 4.81298C23.0074 4.7819 22.9866 4.75082 22.9555 4.7301C22.9452 4.70938 22.914 4.69902 22.8829 4.69902Z" fill="white"/>
<path id="Vector_42" d="M23.2545 3.10356C23.2442 3.0414 23.2132 2.97924 23.2029 2.91708C23.1926 2.91708 23.1926 2.90672 23.1823 2.91708C23.1719 2.92744 23.1719 2.94816 23.1719 2.95852C23.1719 2.99996 23.1719 3.05176 23.1719 3.0932C23.1823 3.0932 23.1926 3.0932 23.1926 3.0932C23.2235 3.0932 23.2442 3.10356 23.2545 3.10356Z" fill="white"/>
<path id="Vector_43" d="M23.2655 3.10357C23.2655 3.05177 23.2759 3.01033 23.2759 2.96888C23.2759 2.95852 23.2759 2.9378 23.2759 2.92744C23.2655 2.90672 23.2342 2.90672 23.2134 2.91708C23.2238 2.97924 23.2446 3.04141 23.2655 3.10357Z" fill="white"/>
<path id="Vector_44" d="M23.2135 3.16572C23.2343 3.17608 23.2552 3.16572 23.2552 3.145C23.2552 3.13464 23.2552 3.12428 23.2656 3.12428C23.2656 3.11392 23.2656 3.11392 23.2552 3.10356C23.2343 3.10356 23.2239 3.0932 23.2135 3.0932C23.203 3.0932 23.1926 3.0932 23.1926 3.0932C23.1926 3.10356 23.1926 3.10356 23.1926 3.11392C23.1926 3.13464 23.1926 3.15536 23.2135 3.16572Z" fill="white"/>
<path id="Vector_45" d="M23.265 3.12425C23.265 3.11391 23.265 3.11391 23.265 3.10358H23.2547C23.2547 3.10358 23.265 3.11391 23.265 3.12425Z" fill="white"/>
</g>
</g>
</svg>
