<svg width="101" height="101" viewBox="0 0 101 101" fill="none" xmlns="http://www.w3.org/2000/svg">
<g filter="url(#filter0_d_22_5603)">
<circle cx="50.5" cy="41.5" r="37.5" fill="#FAFAFA"/>
</g>
<path d="M69.7815 28.3582L69.25 28C64.6831 28.7761 60.874 30.8358 57.8228 34.1791C54.7913 37.5224 53.2756 41.1841 53.2756 45.1642C53.2756 48.3284 54.1909 50.9254 56.0217 52.9552C57.8524 54.9851 60.185 56 63.0197 56C65.815 56 68.1772 54.995 70.1063 52.9851C72.0354 50.9552 73 48.4677 73 45.5224C73 40.7463 70.372 37.5721 65.1161 36C65.4705 32.6169 67.0256 30.0697 69.7815 28.3582Z" fill="#2B7D86"/>
<path d="M44.5059 28.3582L43.9744 28C39.4075 28.7761 35.5984 30.8358 32.5472 34.1791C29.5157 37.5224 28 41.1841 28 45.1642C28 48.3284 28.9154 50.9254 30.7461 52.9552C32.5768 54.9851 34.9094 56 37.7441 56C40.5394 56 42.9016 54.995 44.8307 52.9851C46.7598 50.9552 47.7244 48.4677 47.7244 45.5224C47.7244 40.7463 45.0965 37.5721 39.8406 36C40.1949 32.6169 41.75 30.0697 44.5059 28.3582Z" fill="#2B7D86"/>
<defs>
<filter id="filter0_d_22_5603" x="0" y="0" width="101" height="101" filterUnits="userSpaceOnUse" color-interpolation-filters="sRGB">
<feFlood flood-opacity="0" result="BackgroundImageFix"/>
<feColorMatrix in="SourceAlpha" type="matrix" values="0 0 0 0 0 0 0 0 0 0 0 0 0 0 0 0 0 0 127 0" result="hardAlpha"/>
<feOffset dy="9"/>
<feGaussianBlur stdDeviation="6.5"/>
<feColorMatrix type="matrix" values="0 0 0 0 0.966667 0 0 0 0 0.940535 0 0 0 0 0.910278 0 0 0 0.58 0"/>
<feBlend mode="normal" in2="BackgroundImageFix" result="effect1_dropShadow_22_5603"/>
<feBlend mode="normal" in="SourceGraphic" in2="effect1_dropShadow_22_5603" result="shape"/>
</filter>
</defs>
</svg>
