<svg width="73" height="72" viewBox="0 0 73 72" fill="none" xmlns="http://www.w3.org/2000/svg">
<g filter="url(#filter0_d_1_504)">
<rect x="4.50928" y="4" width="58.4907" height="58.4907" rx="29.2454" fill="#FEBD21" shape-rendering="crispEdges"/>
<path d="M37.8386 19.8518C37.4664 19.8505 37.0976 19.9385 36.7537 20.1106C36.4098 20.2827 36.0975 20.5354 35.835 20.8543L27.6666 30.7248C27.3946 31.0549 27.181 31.4486 27.0389 31.8817C26.8969 32.3148 26.8293 32.7784 26.8403 33.2441C26.8291 33.7102 26.8967 34.1742 27.0387 34.6078C27.1808 35.0413 27.3944 35.4354 27.6666 35.7659L35.8353 45.6364C36.0978 45.9553 36.41 46.2081 36.7539 46.3801C37.0977 46.5522 37.4664 46.6402 37.8386 46.6389C38.5956 46.6389 39.307 46.2828 39.842 45.6364C40.9466 44.3016 40.9466 42.1294 39.842 40.7946L33.5943 33.2453L39.842 25.6965C40.9466 24.3617 40.9466 22.1895 39.842 20.8547C39.5795 20.5357 39.2673 20.2829 38.9234 20.1107C38.5796 19.9386 38.2109 19.8505 37.8386 19.8518ZM37.8386 45.0278C37.6416 45.0284 37.4464 44.9819 37.2644 44.8908C37.0823 44.7998 36.917 44.666 36.778 44.4973L28.7673 34.6269C28.4703 34.2672 28.4896 33.7875 28.4896 33.2755V33.2147C28.4896 32.7028 28.4703 32.2235 28.7673 31.8642L36.857 21.9937C37.1403 21.6514 37.4776 21.4633 37.878 21.4633C38.279 21.4633 38.6356 21.6518 38.919 21.9937C39.504 22.7006 39.494 23.8505 38.909 24.5574L32.1853 32.6758C32.06 32.8265 31.9894 33.0311 31.9889 33.2448C31.9885 33.4584 32.0583 33.6634 32.183 33.8149L38.9006 41.9332C39.1814 42.2736 39.3391 42.7346 39.339 43.2152C39.339 43.6958 39.1812 44.1567 38.9003 44.4969C38.7611 44.6658 38.5957 44.7997 38.4134 44.8908C38.2312 44.9819 38.0358 45.0285 37.8386 45.0278Z" fill="white"/>
</g>
<defs>
<filter id="filter0_d_1_504" x="0.632052" y="0.122775" width="71.4148" height="71.4148" filterUnits="userSpaceOnUse" color-interpolation-filters="sRGB">
<feFlood flood-opacity="0" result="BackgroundImageFix"/>
<feColorMatrix in="SourceAlpha" type="matrix" values="0 0 0 0 0 0 0 0 0 0 0 0 0 0 0 0 0 0 127 0" result="hardAlpha"/>
<feOffset dx="2.58482" dy="2.58482"/>
<feGaussianBlur stdDeviation="3.23102"/>
<feComposite in2="hardAlpha" operator="out"/>
<feColorMatrix type="matrix" values="0 0 0 0 0.458333 0 0 0 0 0.437326 0 0 0 0 0.437326 0 0 0 0.06 0"/>
<feBlend mode="normal" in2="BackgroundImageFix" result="effect1_dropShadow_1_504"/>
<feBlend mode="normal" in="SourceGraphic" in2="effect1_dropShadow_1_504" result="shape"/>
</filter>
</defs>
</svg>
