<svg width="56" height="56" viewBox="0 0 56 56" fill="none" xmlns="http://www.w3.org/2000/svg">
<mask id="mask0_19_2058" style="mask-type:alpha" maskUnits="userSpaceOnUse" x="0" y="0" width="56" height="56">
<rect x="0.0189209" width="55.9621" height="55.9621" fill="#D9D9D9"/>
</mask>
<g mask="url(#mask0_19_2058)">
<path d="M50.8091 33.9993C50.3926 33.1531 49.4086 32.7503 48.517 33.0607L37.6503 37.0349C37.5798 37.0611 37.5069 37.0739 37.4357 37.0747C37.277 37.1858 37.1141 37.2833 36.9555 37.3715C36.2099 37.7844 35.3437 38.0642 34.3818 38.2024C31.2108 38.6586 28.0755 38.6611 24.9843 38.2202L23.7322 38.0422C23.3759 37.9921 23.1282 37.6623 23.1791 37.3062C23.2292 36.9501 23.5566 36.6923 23.9154 36.7533L25.1675 36.9314C28.1366 37.3536 31.1463 37.352 34.112 36.9255C35.001 36.7983 35.717 36.5685 36.3244 36.2318C37.0997 35.802 37.3619 35.4408 37.3619 34.7989C37.3619 33.7246 36.4872 32.8512 35.4125 32.8512H28.168C27.0491 32.8512 25.9488 32.6562 24.8977 32.2712L19.528 30.3041C17.9179 29.7174 16.134 29.686 14.5052 30.2134C11.554 31.1681 8.87928 32.8716 6.76785 35.1389L5 37.1671V51L7.85876 46.2788C8.23543 45.6183 8.57816 45.0773 8.92846 44.5898C9.57236 43.696 10.2128 43.0101 11.2486 42.5649C12.6144 41.9799 14.1413 41.9171 15.5469 42.3886L27.2128 46.3195C29.113 46.9605 31.2108 46.7715 32.9693 45.8082L50.0414 36.4328C50.9092 35.9563 51.246 34.888 50.8091 33.9993ZM18.9792 19.1048L29.3702 28.349C29.4485 28.4186 29.5649 28.4186 29.6433 28.349L34.9924 23.5902L40.0343 19.1048C42.6036 16.8191 43.7102 12.9994 42.45 9.68548C41.8039 7.98635 40.5909 6.42019 38.392 5.60259C33.3329 3.72156 30.3713 6.72793 29.5067 8.02731C28.6422 6.72793 25.6806 3.72156 20.6215 5.60259C18.4227 6.42019 17.2097 7.98635 16.5635 9.68548C15.3033 12.9994 16.4099 16.8191 18.9792 19.1048Z" fill="url(#paint0_linear_19_2058)"/>
</g>
<defs>
<linearGradient id="paint0_linear_19_2058" x1="28" y1="5" x2="28" y2="51" gradientUnits="userSpaceOnUse">
<stop stop-color="#5EEFFF"/>
<stop offset="1" stop-color="#2B7D86"/>
</linearGradient>
</defs>
</svg>
