<svg width="24" height="25" viewBox="0 0 24 25" fill="none" xmlns="http://www.w3.org/2000/svg">
<path fill-rule="evenodd" clip-rule="evenodd" d="M12.0572 2.05859C14.2479 2.05858 15.9686 2.05857 17.312 2.23918C18.6886 2.42427 19.7809 2.8113 20.6391 3.6695C21.4973 4.5277 21.8843 5.61996 22.0694 6.99661C22.25 8.34003 22.25 10.0607 22.25 12.2514V12.3658C22.25 14.5565 22.25 16.2772 22.0694 17.6206C21.8843 18.9972 21.4973 20.0895 20.6391 20.9477C19.7809 21.8059 18.6886 22.1929 17.312 22.378C15.9686 22.5586 14.2479 22.5586 12.0572 22.5586H11.9428C9.7521 22.5586 8.03144 22.5586 6.68802 22.378C5.31137 22.1929 4.21911 21.8059 3.36091 20.9477C2.50272 20.0895 2.11568 18.9972 1.93059 17.6206C1.74998 16.2772 1.74999 14.5565 1.75 12.3658V12.2514C1.74999 10.0607 1.74998 8.34003 1.93059 6.99661C2.11568 5.61996 2.50272 4.5277 3.36091 3.6695C4.21911 2.8113 5.31137 2.42427 6.68802 2.23918C8.03143 2.05857 9.7521 2.05858 11.9428 2.05859H12.0572ZM16.5 12.3086C16.5 14.7939 14.4853 16.8086 12 16.8086C9.51472 16.8086 7.5 14.7939 7.5 12.3086C7.5 9.82331 9.51472 7.80859 12 7.80859C14.4853 7.80859 16.5 9.82331 16.5 12.3086ZM17.5123 7.80859C18.0621 7.80859 18.5078 7.36088 18.5078 6.80859C18.5078 6.25631 18.0621 5.80859 17.5123 5.80859H17.5033C16.9535 5.80859 16.5078 6.25631 16.5078 6.80859C16.5078 7.36087 16.9535 7.80859 17.5033 7.80859H17.5123Z" fill="#CAD1E9"/>
</svg>
