<svg width="57" height="56" viewBox="0 0 57 56" fill="none" xmlns="http://www.w3.org/2000/svg">
<mask id="mask0_19_2052" style="mask-type:alpha" maskUnits="userSpaceOnUse" x="0" y="0" width="57" height="56">
<rect x="0.518982" width="55.9621" height="55.9621" fill="#D9D9D9"/>
</mask>
<g mask="url(#mask0_19_2052)">
<path d="M49.5741 11.1111L42.5342 4H15.4391L8.39919 11.1111L28.9999 33.76L49.5741 11.1111ZM28.9999 12H34.8166L28.9999 29.6356L23.1831 12H28.9999ZM24.3007 10.2222L28.9999 6.07111L33.699 10.2222H24.3007ZM36.6734 12H46.3533L31.1382 28.7733L36.6734 12ZM38.1606 10.2222L42.1998 6.14222L46.2389 10.2222H38.1606ZM36.0398 9.89333L31.3406 5.77778H40.079L36.0398 9.89333ZM22.0479 9.89333L17.9207 5.77778H26.6591L22.0479 9.89333ZM19.8391 10.2222H11.7608L15.7999 6.14222L19.8391 10.2222ZM21.3263 12L26.8615 28.7733L11.6376 12H21.3263ZM50.1197 40.0622C48.7821 38.7289 46.4061 38.72 46.1509 38.7289L32.5198 38.6667C32.4438 37.4688 31.9478 36.3374 31.1206 35.4756C30.3127 34.6904 29.2408 34.2427 28.1199 34.2222H18.4399C17.3633 34.1952 16.2952 34.4221 15.3206 34.885C14.346 35.3479 13.4917 36.0341 12.8256 36.8889H7V52H26.5623C38.407 52 50.9997 48.5689 50.9997 42.2222C51.0052 41.8208 50.9301 41.4224 50.7788 41.0511C50.6276 40.6799 50.4034 40.3435 50.1197 40.0622ZM8.75999 50.2222V38.6667H12.192L12.28 50.2222H8.75999ZM26.5623 50.2222H14.04V38.2222C14.5309 37.5097 15.1909 36.933 15.9596 36.5448C16.7283 36.1566 17.5811 35.9693 18.4399 36H28.1199C28.7586 36.029 29.3652 36.2911 29.8271 36.7378C30.3263 37.2628 30.6363 37.9422 30.707 38.6667H23.7199V40.4444H31.5782L46.1597 40.5067C47.1323 40.477 48.0886 40.7637 48.8877 41.3244C49.0041 41.44 49.0954 41.5786 49.156 41.7316C49.2166 41.8846 49.2451 42.0486 49.2397 42.2133C49.2397 46.56 38.8558 50.2222 26.5623 50.2222Z" fill="url(#paint0_linear_19_2052)"/>
</g>
<defs>
<linearGradient id="paint0_linear_19_2052" x1="22" y1="1.64093e-06" x2="72.5" y2="86" gradientUnits="userSpaceOnUse">
<stop stop-color="#5EEFFF"/>
<stop offset="1" stop-color="#2B7D86"/>
</linearGradient>
</defs>
</svg>
