<svg width="98" height="56" viewBox="0 0 98 56" fill="none" xmlns="http://www.w3.org/2000/svg">
<g id="Group 1321314443">
<g id="Group">
<g id="Group_2">
<g id="Group_3">
<g id="Group_4">
<path id="Vector" d="M36.0416 36.288C35.7966 35.9359 35.722 35.9359 35.6262 35.9359C35.4877 35.9359 35.3705 36.0426 35.3705 36.1706C35.3705 36.3093 35.4771 36.384 35.6262 36.384C36.1481 36.384 36.5316 36.7894 36.5316 37.2376C36.5422 37.7604 36.1268 38.1552 35.5942 38.1552C35.3705 38.1552 35.0403 38.1338 34.6569 37.515L35.1895 37.1736C35.3918 37.483 35.509 37.5043 35.5942 37.5043C35.7114 37.5043 35.8499 37.419 35.8392 37.2909C35.8392 37.1736 35.722 37.0348 35.5942 37.0348C34.9871 37.0348 34.6675 36.6614 34.6675 36.1599C34.6675 35.6691 35.0829 35.253 35.5942 35.253C35.8605 35.253 36.1801 35.2743 36.5635 35.9145L36.0416 36.288Z" fill="white"/>
<path id="Vector_2" d="M43.37 38.1125V35.285C43.37 35.285 44.8186 35.285 45.1702 35.285V35.9785C44.8719 35.9785 44.3606 35.9785 44.0624 35.9785V36.3626C44.4245 36.3626 44.9039 36.3626 45.1702 36.3626V37.0455C44.8719 37.0455 44.4245 37.0455 44.0624 37.0455V37.4296C44.4032 37.4296 44.9039 37.4296 45.1702 37.4296V38.1231C44.808 38.1125 43.37 38.1125 43.37 38.1125Z" fill="white"/>
<path id="Vector_3" d="M53.3614 36.288C53.1164 35.9359 53.0418 35.9359 52.946 35.9359C52.8075 35.9359 52.6903 36.0426 52.6903 36.1706C52.6903 36.3093 52.7968 36.384 52.946 36.384C53.4679 36.384 53.8514 36.7894 53.862 37.2376C53.8727 37.7604 53.4573 38.1552 52.9247 38.1552C52.701 38.1552 52.3708 38.1338 51.9873 37.515L52.5199 37.1736C52.7223 37.483 52.8288 37.5043 52.9247 37.5043C53.0418 37.5043 53.1803 37.419 53.1697 37.2909C53.1697 37.1736 53.0525 37.0348 52.9247 37.0348C52.3175 37.0348 51.998 36.6614 51.998 36.1599C51.998 35.6691 52.4134 35.253 52.9247 35.253C53.191 35.253 53.5105 35.2743 53.894 35.9145L53.3614 36.288Z" fill="white"/>
<path id="Vector_4" d="M62.0321 36.288C61.7871 35.9359 61.7125 35.9359 61.6166 35.9359C61.4782 35.9359 61.361 36.0426 61.361 36.1706C61.361 36.3093 61.4675 36.384 61.6166 36.384C62.1386 36.384 62.522 36.7894 62.5327 37.2376C62.5433 37.7604 62.1279 38.1552 61.5953 38.1552C61.3716 38.1552 61.0414 38.1338 60.658 37.515L61.1906 37.1736C61.3929 37.483 61.4995 37.5043 61.5953 37.5043C61.7125 37.5043 61.851 37.419 61.8403 37.2909C61.8403 37.1736 61.7231 37.0348 61.5953 37.0348C60.9882 37.0348 60.6686 36.6614 60.6686 36.1599C60.6686 35.6691 61.084 35.253 61.5953 35.253C61.8616 35.253 62.1812 35.2743 62.5646 35.9145L62.0321 36.288Z" fill="white"/>
<path id="Vector_5" d="M69.925 38.1232C69.925 37.7817 69.925 35.6478 69.925 35.2957H70.6174C70.6174 35.6478 70.6174 37.7817 70.6174 38.1232H69.925Z" fill="white"/>
<path id="Vector_6" d="M78.9685 38.1978C78.1376 38.1978 77.4559 37.515 77.4559 36.7041C77.4559 35.9038 78.1483 35.2316 78.9685 35.2316C79.7887 35.2316 80.4597 35.9145 80.4597 36.7041C80.4491 37.515 79.7887 38.1978 78.9685 38.1978ZM78.9685 35.9465C78.5211 35.9465 78.1803 36.2986 78.1803 36.7147C78.1803 37.1415 78.5211 37.483 78.9685 37.483C79.3946 37.483 79.7248 37.1415 79.7248 36.7147C79.7248 36.2986 79.3839 35.9465 78.9685 35.9465Z" fill="white"/>
<path id="Vector_7" d="M86.9148 36.5654C86.9148 36.6187 86.9148 36.6934 86.9148 36.7574C86.9148 37.2376 86.9148 37.9098 86.9148 38.1232H86.2224C86.2224 37.8031 86.2224 35.1463 86.2224 35.1463L88.2889 36.8428C88.2889 36.8001 88.2782 36.7468 88.2782 36.7041C88.2782 36.1813 88.2782 35.5091 88.2782 35.3063H88.9706C88.9706 35.6264 88.9706 38.2832 88.9706 38.2832L86.9148 36.5654Z" fill="white"/>
<path id="Vector_8" d="M96.6824 36.288C96.4374 35.9359 96.3629 35.9359 96.267 35.9359C96.1285 35.9359 96.0114 36.0426 96.0114 36.1706C96.0114 36.3093 96.1179 36.384 96.267 36.384C96.789 36.384 97.1724 36.7894 97.1831 37.2376C97.1937 37.7604 96.7783 38.1552 96.2457 38.1552C96.022 38.1552 95.6918 38.1338 95.3083 37.515L95.8409 37.1736C96.0433 37.483 96.1498 37.5043 96.2457 37.5043C96.3629 37.5043 96.5014 37.419 96.4907 37.2909C96.4907 37.1736 96.3735 37.0348 96.2457 37.0348C95.6385 37.0348 95.319 36.6614 95.319 36.1599C95.319 35.6691 95.7344 35.253 96.2457 35.253C96.512 35.253 96.8316 35.2743 97.215 35.9145L96.6824 36.288Z" fill="white"/>
</g>
<path id="Vector_9" d="M57.2706 0.949585V15.6312H61.6805V16.7089H54.1603V0.949585H57.2706Z" fill="white"/>
<path id="Vector_10" d="M65.6643 4.27856H62.9268L60.5088 12.473C62.9161 12.473 65.5258 12.473 67.9438 12.473L65.6643 4.27856ZM61.9575 11.6087L63.3209 6.84999L64.5885 11.6087H61.9575Z" fill="white"/>
<path id="Vector_11" d="M50.0274 4.27856H47.2899L44.8719 12.473C47.2793 12.473 49.889 12.473 52.3069 12.473L50.0274 4.27856ZM46.3312 11.6087L47.6947 6.84999L48.9623 11.6087H46.3312Z" fill="white"/>
<path id="Vector_12" d="M34.6461 16.8476V6.11377H39.4181C41.8681 6.11377 43.1037 6.98869 43.1037 8.74921C43.1037 9.99757 42.3581 10.7978 40.8775 11.1499C42.667 11.502 43.5511 12.4516 43.5511 13.9987C43.5511 15.898 42.3474 16.8583 39.9507 16.8583H34.6461V16.8476ZM37.7671 10.7871H38.7258C39.6099 10.7871 40.0573 10.1363 40.0573 8.8239C40.0573 7.60754 39.5886 7.01003 38.6512 7.01003H37.7671V10.7871ZM37.7671 15.962H38.6512C39.8123 15.962 40.3981 15.3005 40.3981 13.9667C40.3981 12.441 39.8016 11.6727 38.598 11.6727H37.7671V15.962Z" fill="white"/>
<path id="Vector_13" d="M78.1695 6.11377V16.8476H75.7941L71.3204 10.0509V16.8476H70.2765V6.11377H72.2471L77.1363 13.4546V6.11377H78.1695Z" fill="white"/>
<path id="Vector_14" d="M87.1492 12.537L88.4806 12.8784C88.5019 13.1558 88.5126 13.3906 88.5126 13.5826C88.5126 14.6282 88.1398 15.4605 87.3835 16.09C86.6272 16.7195 85.6153 17.0289 84.3477 17.0289C81.1735 17.0289 79.5757 15.2364 79.5757 11.6514C79.5757 9.67746 79.7994 8.85589 80.9711 7.51149C81.8978 6.45518 83.1015 5.92169 84.5927 5.92169C86.9148 5.92169 88.0759 7.04202 88.0759 9.27201L86.7444 9.89086C86.7657 9.57076 86.7657 9.33603 86.7657 9.15464C86.7657 7.56484 86.1372 6.77528 84.8697 6.77528C83.5275 6.77528 82.8565 8.46111 82.8565 11.8221C82.8565 14.7136 83.6021 16.154 85.104 16.154C85.7218 16.154 86.2331 15.9086 86.6485 15.4178C87.0639 14.927 87.2663 14.3082 87.2663 13.5719C87.245 13.3479 87.2131 13.0064 87.1492 12.537Z" fill="white"/>
<path id="Vector_15" d="M96.5333 6.11377V7.19142H92.688V10.4457H95.9155V11.5234H92.688V15.7806H97.1831V16.8583H89.5776V6.11377H96.5333Z" fill="white"/>
<path id="Vector_16" d="M38.4382 22.9401V23.5269H36.3291V25.4688H38.1186V26.0556H36.3291V28.7658H34.6461V22.9507H38.4382V22.9401Z" fill="white"/>
<path id="Vector_17" d="M41.3782 22.844C43.0718 22.844 43.9133 23.847 43.9133 25.8529C43.9133 27.8588 43.0505 28.8618 41.3356 28.8618C39.61 28.8618 38.7578 27.8375 38.7578 25.7889C38.7578 23.8149 39.6313 22.844 41.3782 22.844ZM41.3356 23.3028C41.016 23.3028 40.803 23.4735 40.6965 23.8256C40.5899 24.1777 40.526 24.8499 40.526 25.8422C40.526 26.8345 40.5793 27.5067 40.6965 27.8588C40.803 28.2109 41.0267 28.3816 41.3356 28.3816C41.6445 28.3816 41.8682 28.2109 41.9853 27.8588C42.1025 27.5067 42.1558 26.8345 42.1558 25.8422C42.1558 24.8499 42.1025 24.1777 41.9853 23.8256C41.8682 23.4842 41.6551 23.3028 41.3356 23.3028Z" fill="white"/>
<path id="Vector_18" d="M44.6588 28.7551V22.9401H47.1513C47.8011 22.9401 48.3231 23.0788 48.7065 23.3562C49.1006 23.6336 49.2924 23.9964 49.2924 24.4552C49.2924 25.1594 48.8769 25.6182 48.0461 25.8316C48.4722 25.9916 48.7491 26.1623 48.8769 26.3544C49.0048 26.5465 49.09 26.9092 49.1326 27.4641C49.1859 28.1149 49.2924 28.5524 49.4628 28.7551H47.6307C47.5135 28.4884 47.4602 28.1469 47.4602 27.7415L47.4496 27.4L47.4389 26.9626C47.4389 26.2904 47.1727 25.9596 46.6294 25.9596H46.3418V28.7551H44.6588ZM46.3525 25.4795H46.6933C47.3324 25.4795 47.652 25.1487 47.652 24.4765C47.652 23.8043 47.3324 23.4736 46.6933 23.4736H46.3525V25.4795Z" fill="white"/>
<path id="Vector_19" d="M54.7568 24.7325V28.7764H52.4027V20.6567H54.7568V23.9216H56.6741V20.6567H59.0282V28.7764H56.6741V24.7325H54.7568Z" fill="white"/>
<path id="Vector_20" d="M65.6644 20.6567V21.4676H62.7564V23.9216H65.1957V24.7325H62.7564V27.9548H66.1543V28.7657H60.4023V20.646L65.6644 20.6567Z" fill="white"/>
<path id="Vector_21" d="M70.7984 20.6567L73.0566 28.7764H70.6919L70.2126 27.0159H67.7733L67.262 28.7764H66.3459L68.7426 20.6567H70.7984ZM68.0076 26.1943H69.9995L69.0409 22.5986L68.0076 26.1943Z" fill="white"/>
<path id="Vector_22" d="M75.8261 20.6567V27.9655H79.1601V28.7764H73.472V20.6567H75.8261Z" fill="white"/>
<path id="Vector_23" d="M82.0042 20.6567V28.7764H79.6501V20.6567H82.0042Z" fill="white"/>
<path id="Vector_24" d="M89.3434 20.6567V28.7764H87.5432L84.1559 23.6336V28.7764H83.3677V20.6567H84.8589L88.5551 26.205V20.6567H89.3434Z" fill="white"/>
<path id="Vector_25" d="M93.8597 24.3911H97.1937V28.7764H96.4481L96.1925 28.2216C95.5427 28.6911 94.8503 28.9151 94.126 28.9151C92.933 28.9151 91.9956 28.5524 91.3352 27.8375C90.6748 27.1119 90.3446 26.109 90.3446 24.7966C90.3446 23.5269 90.6961 22.4919 91.3991 21.7024C92.1021 20.9128 93.0182 20.518 94.158 20.518C95.6492 20.518 96.5653 21.2862 96.8848 22.812L95.777 23.3135V23.1214L95.7557 22.684C95.6812 21.7237 95.2444 21.2542 94.4349 21.2542C93.8384 21.2542 93.4336 21.5103 93.2206 22.0118C93.0076 22.5133 92.8904 23.4629 92.8904 24.8499C92.8904 26.141 92.9756 27.0266 93.1567 27.4854C93.3378 27.9549 93.668 28.1789 94.158 28.1789C94.7438 28.1789 95.0314 27.8588 95.0314 27.208V25.2127H93.8597V24.3911Z" fill="white"/>
<path id="Vector_26" d="M97.1938 4.28925H34.6461V4.51331H97.1938V4.28925Z" fill="white"/>
<path id="Vector_27" d="M97.1938 18.8215H34.6461V19.0455H97.1938V18.8215Z" fill="white"/>
<path id="Vector_28" d="M97.2044 31.3905H34.6461V31.6146H97.2044V31.3905Z" fill="white"/>
</g>
<path id="Vector_29" d="M97.2899 41.4628H34.7316V41.6869H97.2899V41.4628Z" fill="white"/>
</g>
</g>
<g id="Group_5">
<path id="Vector_30" d="M3.62799 49.8386H3.61733C3.46821 50.02 3.30843 50.2014 3.1593 50.3828C3.34038 50.3507 3.53212 50.3187 3.7132 50.2867C3.68124 50.5535 3.63864 50.8095 3.60668 51.0763C4.39492 51.2897 5.18316 51.5137 5.97139 51.7271C5.24707 51.4284 4.52274 51.1296 3.80907 50.8416C3.86232 50.7242 3.91558 50.6068 3.95819 50.4894C4.71447 50.3401 5.48141 50.1907 6.26964 50.0093C6.8981 49.8706 7.57982 49.7106 8.67696 49.4438C9.7741 49.1771 11.2547 48.8036 13.0549 48.3235C12.9057 48.2488 12.7673 48.1634 12.6181 48.0887C11.4251 48.4195 10.1789 48.7396 8.87935 49.0277C7.34548 49.3798 5.87553 49.6572 4.46948 49.9026" fill="white"/>
<path id="Vector_31" d="M15.8883 25.7356C16.325 27.4961 16.4741 29.3313 16.6871 31.1452C16.7511 31.668 16.6126 32.2121 16.5593 32.7456C16.6871 30.0462 16.1439 27.4534 15.3876 24.7006C14.9083 25.2981 14.5461 25.7569 14.184 26.2157C14.2053 26.173 14.2159 26.1303 14.2372 26.0877C14.7059 25.5008 15.132 24.8927 15.6326 24.1458C15.8457 23.9857 16.1013 23.751 16.3995 23.5909C15.9415 24.1458 15.6539 24.7753 15.8883 25.7356Z" fill="white"/>
<path id="Vector_32" d="M3.32963 18.224C3.28702 18.4587 3.24442 18.6828 3.20181 18.9176C2.88225 19.8672 2.5627 20.8274 2.23249 21.7771C2.30705 24.5192 2.38162 27.2613 2.45618 30.0141C2.10467 32.2228 1.74251 34.4421 1.39099 36.6507C1.24187 39.6063 1.08209 42.5725 0.932963 45.528C1.85967 46.9578 2.77573 48.3982 3.70244 49.8279C3.1805 50.5215 2.65856 51.215 2.13662 51.9086C2.95682 52.8582 3.78766 53.7971 4.60785 54.7467C4.53329 54.8534 4.45873 54.9601 4.37351 55.0775C3.47876 54.0212 2.584 52.9542 1.68924 51.8979C2.13662 51.279 2.584 50.6602 3.03138 50.0307C2.0301 48.6649 1.02883 47.3099 0.038208 45.9441C0.272549 42.7645 0.50689 39.5849 0.741231 36.4053C1.11405 34.4208 1.42295 32.2014 1.58273 29.7581C1.78511 26.8025 1.7425 24.1031 1.58273 21.7557C1.78511 21.0408 1.97684 20.3046 2.15793 19.5577C2.40292 18.5761 2.62661 17.6158 2.82899 16.6769C3.07399 15.7166 3.32963 14.767 3.57462 13.8067C4.56525 12.7931 5.55586 11.7901 6.54649 10.7765C7.88862 10.6271 9.23076 10.4884 10.5729 10.339C10.6794 9.03732 10.7753 7.74627 10.8818 6.44456C11.4889 6.01777 12.0855 5.59098 12.6926 5.16418C12.3091 5.67633 11.9257 6.17781 11.5422 6.68996C11.6807 6.98872 11.8192 7.28747 11.9576 7.58623C13.9815 9.49612 15.9947 11.406 18.0185 13.3052C18.0185 13.4546 18.0079 13.604 18.0079 13.7534C15.984 11.9929 13.9602 10.2323 11.9363 8.47182C11.5209 9.17603 11.0842 10.1897 11.425 11.1286C11.5955 11.5874 11.7979 11.7901 12.0428 12.0889C12.437 12.5584 12.5541 13.6147 11.244 16.2394L11.3079 16.2501C11.1907 14.6176 11.0842 12.9851 10.967 11.3527C10.1468 13.0812 9.32662 14.8203 8.50643 16.5489C9.25206 14.735 9.99769 12.9318 10.7433 11.1179C9.41184 11.2246 8.06971 11.342 6.73822 11.4487C5.89673 12.3876 5.05523 13.3266 4.22438 14.2655C3.96874 15.3752 3.72375 16.4742 3.46811 17.5838L3.32963 18.224Z" fill="white"/>
<path id="Vector_33" d="M8.05908 31.9774C8.43189 30.7397 8.7408 29.598 9.11361 28.467C9.59295 26.9839 9.45447 26.5571 8.14429 25.9062C8.12299 25.8956 8.11234 25.8636 8.09103 25.8422C8.87927 25.8742 9.57164 26.0663 9.68881 26.8025C10.0936 26.8665 10.4877 26.8132 10.6794 26.9839C11.9151 28.0615 13.1187 29.1925 14.3224 30.3022C14.3011 30.3235 14.2691 30.3449 14.2478 30.3662C12.9696 29.2139 11.6807 28.0615 10.4877 26.9839C9.13491 27.9548 9.15622 29.3206 8.77275 30.4836C8.60232 30.9957 8.79406 31.6359 8.81536 32.2228C8.82602 32.4255 8.85797 32.6496 8.77275 32.8203C8.21886 34.0366 8.27212 35.2103 8.96449 36.3626C9.40121 37.0882 9.81663 37.8351 10.2427 38.5713L10.264 38.5606C10.1149 38.5713 9.95511 38.582 9.80598 38.6033C9.83794 38.678 9.98707 38.87 10.019 38.9447C9.94446 39.0514 9.75272 39.0514 9.67816 39.1581C9.6036 38.9767 9.49708 38.71 9.36925 38.3686C8.69819 36.6507 8.65558 36.4053 8.46385 36.1066C8.33602 35.9038 8.13364 35.6904 7.81409 35.4877" fill="white"/>
<path id="Vector_34" d="M23.483 12.4943C23.7066 12.377 23.9303 12.2596 24.3458 12.0355C23.4297 13.604 22.503 15.1725 21.5869 16.7409C20.5111 15.6739 19.4246 14.607 18.3488 13.54C18.1251 13.4546 17.912 13.3799 17.6884 13.2946C17.8694 13.572 18.157 13.9774 18.5405 14.4256C18.924 14.8737 19.2435 15.1831 19.4033 15.3432C19.8507 15.7806 20.5004 16.4422 21.3419 17.3918C21.6402 17.3918 21.9491 17.3918 22.2473 17.3918C22.6947 16.3888 23.1528 15.3858 23.5895 14.3722C24.0475 13.2839 24.1221 12.2809 24.921 11.1819" fill="white"/>
<path id="Vector_35" d="M4.48 54.6293C4.43739 54.7787 4.39478 54.9174 4.35217 55.0668C6.56776 55.1308 8.77269 55.1842 10.9883 55.2482C11.9895 54.9708 13.0334 54.6934 14.1306 54.4479C15.0786 54.2239 16.0053 54.0318 16.9001 53.8611C18.7854 53.8718 20.6602 53.8931 22.5455 53.9038C24.4309 53.6584 26.3269 53.413 28.2123 53.1676C28.1804 52.8688 28.1591 52.5701 28.1271 52.282C26.2737 52.6021 24.4203 52.9222 22.5668 53.2423C20.7241 53.1569 18.8813 53.0716 17.0385 52.9862C16.9001 53.1249 16.7509 53.2743 16.6125 53.413C14.7058 53.8825 12.8097 54.3519 10.9031 54.8107C8.75139 54.7467 6.62102 54.6934 4.48 54.6293Z" fill="white"/>
<path id="Vector_36" d="M15.9628 23.9323C15.8989 23.7083 15.8243 23.4842 15.7604 23.2602C16.8575 23.5909 17.9653 23.911 19.0625 24.2418C19.4992 24.3271 19.9466 24.4125 20.3833 24.4979C21.9704 24.4979 22.6628 24.6686 22.993 24.8286C23.0675 24.8606 23.3019 24.8393 23.5362 24.914C23.6108 24.9353 23.8877 24.6152 23.8984 24.4445C23.9303 23.751 23.8984 23.0681 23.973 22.3639C24.0688 23.1535 24.1647 23.9324 24.2606 24.7539C24.6866 24.6366 25.0807 24.5405 25.4749 24.4338C25.4962 24.5192 25.5175 24.6152 25.5388 24.7006C24.7718 24.9567 24.0156 25.2021 23.2486 25.4581C20.82 24.9567 18.3914 24.4445 15.9628 23.9323Z" fill="white"/>
<path id="Vector_37" d="M25.0168 11.246C25.3576 12.2916 25.6772 13.3479 26.0394 14.3829C26.1991 14.8417 26.4015 15.2471 26.6359 15.7486C27.0939 16.7409 27.8821 18.3307 29.1071 20.486C28.8408 19.9312 28.4786 19.163 28.0632 18.2454C27.5093 17.0397 27.243 16.4315 27.0939 16.0794C26.4122 14.3295 26.3163 13.8387 25.7837 12.4943C25.6133 12.0569 25.2724 11.6728 25.0168 11.2673C25.0061 11.2673 25.0061 11.2566 25.0168 11.246Z" fill="white"/>
<path id="Vector_38" d="M20.7135 47.8647C21.0437 47.9074 21.3739 47.9607 21.7041 48.0034C21.7041 48.0034 22.2687 48.0887 22.8439 48.3555C24.3671 49.0704 25.8903 49.7852 27.4135 50.5108C27.4987 51.1723 27.584 51.8338 27.6692 52.4954C27.8183 52.4207 27.9674 52.3567 28.1165 52.282C28.0207 51.5778 27.9355 50.8736 27.8396 50.1693C26.0607 49.4438 24.8997 48.9103 24.1434 48.5582C23.8558 48.4195 22.9184 48.2274 21.8746 47.5873C21.5657 47.4059 21.3313 47.2245 21.1715 47.1071C21.0224 47.3632 20.8626 47.6193 20.7135 47.8647Z" fill="white"/>
<path id="Vector_39" d="M13.0655 48.3235C12.7885 47.2992 12.4796 46.2535 12.1494 45.1972C11.457 42.9459 10.7007 40.8333 9.92316 38.8594C9.83794 38.9554 9.74208 39.0514 9.65686 39.1475C10.6475 42.135 11.6381 45.1119 12.6287 48.0994C12.7672 48.1741 12.9163 48.2488 13.0655 48.3235Z" fill="white"/>
<path id="Vector_40" d="M22.3539 17.1677C21.9385 18.1387 22.2367 18.9709 22.6947 19.8885C23.2806 21.0515 23.6108 22.3426 24.0582 23.5696C24.0262 23.5803 23.9836 23.5909 23.9517 23.6016C23.1528 21.681 22.3539 19.7605 21.5656 17.8399L21.0011 16.7089L22.3539 17.1677Z" fill="white"/>
<path id="Vector_41" d="M23.1526 1.83521C19.1902 0.960288 15.5153 0.853591 14.6099 1.64316C14.9081 1.6645 15.1744 1.77119 15.3555 1.68583C16.9639 0.981628 18.5404 1.47244 20.1488 1.69651C21.1394 1.83521 22.1514 1.78186 23.1526 1.81387C23.142 1.81387 23.1526 1.83521 23.1526 1.83521Z" fill="white"/>
<path id="Vector_42" d="M24.3883 4.22524C24.1434 4.15055 24.0155 4.10787 24.0049 4.10787C24.399 6.07111 24.8038 8.06637 25.1979 10.0723C25.2405 10.0616 25.2831 10.0509 25.3151 10.0509C24.9529 7.61823 24.5907 5.18552 24.2286 2.75281C24.2073 2.75281 24.186 2.75281 24.1647 2.76348C24.2286 3.21161 24.3031 3.67041 24.3883 4.22524Z" fill="white"/>
<path id="Vector_43" d="M28.2977 24.5405C28.319 24.5192 28.3296 24.4978 28.3403 24.4978C29.267 23.6869 29.2776 23.6763 28.5959 22.6946C28.4361 22.4706 28.2764 22.2572 28.1592 21.9798C28.4042 22.2145 28.6492 22.4492 29.0007 22.78C28.99 21.9371 28.99 21.2115 28.9794 20.4753C29.0752 20.4753 29.1711 20.4753 29.267 20.4647C29.2776 20.9021 29.3096 21.3396 29.2989 21.777C29.2989 22.1291 29.1498 22.5239 29.2457 22.844C29.4268 23.4522 29.3096 23.5589 29.2457 23.7723C29.1605 24.039 28.9155 24.3911 28.1805 24.6792C28.2124 24.6365 28.2444 24.5939 28.2977 24.5405Z" fill="white"/>
<path id="Vector_44" d="M11.5103 20.614C11.7979 20.8487 12.0961 21.0728 12.3624 21.3289C12.437 21.4036 12.405 21.5956 12.4157 21.7343C13.2891 22.2572 14.1732 22.7693 15.0467 23.2921C13.9495 22.3105 12.9909 21.1262 11.5103 20.614Z" fill="white"/>
<path id="Vector_45" d="M27.4667 31.5292C27.4348 29.8647 27.4135 28.2002 27.3815 26.5358C27.275 26.4931 27.1578 26.4611 27.0513 26.4184C27.0833 28.0829 27.1046 29.7474 27.1365 31.4119C26.9768 31.7426 26.8276 32.0734 26.6678 32.3935C26.9341 32.1054 27.2004 31.8173 27.4667 31.5292Z" fill="white"/>
<path id="Vector_46" d="M8.05908 21.9691C8.1656 23.2708 8.28277 24.5725 8.38929 25.8742C8.39995 24.4765 8.4106 23.0894 8.42125 21.6917C8.35734 21.681 8.28277 21.6703 8.21886 21.6703C8.1656 21.777 8.12299 21.8731 8.05908 21.9691Z" fill="white"/>
<path id="Vector_47" d="M12.2239 20.9448C12.0109 20.8275 11.7766 20.582 11.5848 20.6141C10.7966 20.7741 10.019 21.0195 9.25208 21.2756C10.2533 21.1689 11.2333 21.0515 12.2239 20.9448Z" fill="white"/>
<path id="Vector_48" d="M20.5856 26.4398C20.1702 27.3254 19.7441 28.2003 19.3074 29.1392C19.4032 29.1712 19.6269 29.2246 19.8506 29.2886C19.2967 29.8541 17.9226 29.4273 18.0504 30.8037H18.0931C17.1983 29.7367 18.3594 29.2779 18.7748 28.6591C19.3074 27.8695 19.9784 27.176 20.5856 26.4398Z" fill="white"/>
<path id="Vector_49" d="M22.9291 43.7141C22.3113 44.9198 21.6829 46.1148 21.0651 47.3205C21.1716 47.3205 21.2887 47.3312 21.3953 47.3312C21.8639 46.4563 22.3326 45.5814 22.7907 44.7064C23.2167 43.9062 23.6428 43.106 24.0689 42.3057L22.9291 43.7141Z" fill="white"/>
<path id="Vector_50" d="M22.4709 41.8896C22.4817 41.9003 22.4924 41.9217 22.4924 41.9325L22.4709 41.8896Z" fill="white"/>
<path id="Vector_51" d="M26.1779 34.1114C25.4855 35.9039 24.7931 37.6964 24.1008 39.4783C24.0795 40.1078 24.0581 40.7373 24.0368 41.3668C23.9303 41.5162 23.8238 41.6656 23.7173 41.8149C23.941 41.6976 24.154 41.5802 24.3777 41.4628C24.431 40.8013 24.4949 40.1291 24.5481 39.4676C25.4535 37.1522 26.3483 34.8369 27.2537 32.5322C26.9128 32.927 26.5826 33.3111 26.2418 33.7059L26.1779 34.1114Z" fill="white"/>
<path id="Vector_52" d="M24.9423 24.9353C25.3364 25.1487 25.7305 25.3621 26.1246 25.5755C26.54 25.8103 26.9555 26.0557 27.4135 26.3224C27.8609 25.5862 28.3189 24.8393 28.7663 24.1031C28.8834 23.9004 29.0326 23.6549 29.0539 23.6656C29.0752 23.6763 28.8621 24.0604 28.8515 24.1671C28.7769 24.8393 28.3189 25.2981 27.9354 25.7889C27.7544 26.0236 27.5626 26.2584 27.307 26.5785C26.5507 26.045 25.7411 25.4902 24.9423 24.9353Z" fill="white"/>
<path id="Vector_53" d="M16.8362 34.3354C16.719 35.1569 16.6018 35.9785 16.4847 36.8001C16.4314 37.2055 16.3781 37.611 16.3249 38.0164C16.3355 37.3442 16.2503 36.6507 16.3888 35.9999C16.687 34.6981 16.6018 33.3964 16.5912 32.084C16.5912 32.0307 16.6018 31.9773 16.6018 31.9026C16.9107 32.3935 17.0173 33.6205 16.8362 34.3354Z" fill="white"/>
<path id="Vector_54" d="M17.8268 36.2773C17.8587 35.7544 17.9227 35.221 17.9227 34.6981C17.9333 33.3431 17.9227 31.9987 17.9227 30.6436C17.9227 30.6223 17.9546 30.6116 17.9972 30.5476C18.0718 30.8357 18.1463 31.0917 18.2209 31.3478C18.157 30.889 18.0931 30.4302 18.0292 29.9394C18.125 30.0034 18.2103 30.0568 18.2955 30.1208C18.3061 30.1101 18.3274 30.0995 18.3381 30.0888C18.2209 29.9287 18.1037 29.7687 17.9972 29.6086L18.0079 29.6193C17.9653 29.6727 17.88 29.726 17.88 29.7794C17.8481 31.9453 17.8374 34.1113 17.8268 36.2773Z" fill="white"/>
<path id="Vector_55" d="M15.6859 42.7325C15.5048 43.234 15.3343 43.7461 15.1426 44.2476C15.0467 44.493 14.9722 44.7597 14.8124 44.9518C14.1626 45.6987 13.8111 46.595 13.449 47.4912C13.417 47.5766 13.3424 47.6513 13.2892 47.7259C13.4596 47.4485 13.6194 47.1711 13.8005 46.9044C14.1626 46.3495 14.5354 45.7947 14.8976 45.2399C14.9615 45.1439 15.0148 45.0265 15.0467 44.9091C15.2491 44.3116 15.4515 43.7141 15.6432 43.1273C15.8137 43.1166 15.9521 43.1059 16.08 43.0953C15.835 43.1059 15.7072 42.9779 15.6859 42.7325Z" fill="white"/>
<path id="Vector_56" d="M13.0547 48.3342C13.289 47.854 13.5021 47.3419 13.779 46.8831C13.9388 46.6163 14.2051 46.4029 14.4501 46.2002C14.5246 46.1468 14.6951 46.2215 14.8335 46.2322C14.759 46.1682 14.6951 46.0508 14.6205 46.0401C14.4607 46.0295 14.301 46.0722 14.0773 46.1042C14.1092 45.6454 14.1305 45.2186 14.1625 44.7811C14.1518 44.7811 14.1305 44.7704 14.1199 44.7704C14.0879 44.9838 14.0453 45.1972 14.0453 45.4C14.0347 45.8268 13.9601 46.2109 13.7577 46.6056C13.4595 47.1605 13.2784 47.758 13.0547 48.3342Z" fill="white"/>
<path id="Vector_57" d="M15.9628 37.0776C16.1225 38.6781 16.2823 40.2785 16.4528 41.8683C16.4954 41.7936 16.5273 41.7189 16.5699 41.6549C16.4528 40.0438 16.4314 38.8061 16.4421 38.2193C16.4528 37.5577 16.4954 36.7895 16.4954 36.7895C16.506 36.6721 16.506 36.5761 16.506 36.5121C16.3888 36.8002 16.261 37.0883 16.1225 37.4297C16.0693 37.3123 16.016 37.195 15.9628 37.0776Z" fill="white"/>
<path id="Vector_58" d="M14.3011 2.91283H14.2904C14.4076 2.8168 14.5354 2.72077 14.6526 2.62474C15.0148 2.55005 15.3876 2.47536 15.7497 2.40068C15.1426 2.37934 14.5248 2.34733 13.9176 2.32599C13.7365 2.67809 13.5448 3.04087 13.3424 3.40364C13.3531 3.45699 13.3637 3.49967 13.3744 3.55302C12.5009 4.85473 10.9671 7.40481 11.0842 7.3728C12.959 4.54531 13.6726 3.35029 13.6939 3.13689C13.6939 3.12622 13.6833 3.00886 13.7578 2.90216C13.8324 2.77412 13.9389 2.65675 14.0348 2.52871C14.1094 2.64608 14.2052 2.77412 14.3011 2.91283Z" fill="white"/>
<path id="Vector_59" d="M15.6751 43.1167C15.6325 43.01 15.5899 42.9033 15.5686 42.8606C15.739 42.6792 15.9627 42.4765 16.1225 42.2417C16.4208 41.7723 16.6871 41.2708 16.964 40.7906C16.7616 41.2708 16.5592 41.7509 16.3462 42.2417C16.3355 42.2417 16.3249 42.2311 16.3142 42.2311C16.4314 42.071 16.5486 41.911 16.7084 41.6762C16.5699 42.3698 16.1332 42.7539 15.6751 43.1167Z" fill="white"/>
<path id="Vector_60" d="M17.8162 36.0959C17.7629 36.32 17.7096 36.544 17.6457 36.7681C17.6244 36.7681 17.5925 36.7681 17.5712 36.7681C17.4859 36.352 17.4114 35.9465 17.3262 35.5304C17.4007 36.0105 17.4966 36.4907 17.5499 36.9708C17.5818 37.2162 17.5392 37.483 17.5286 37.7284C17.5073 38.1338 17.4753 38.5393 17.4433 38.9554C17.4753 38.9127 17.5286 38.87 17.5286 38.8167C17.6244 37.9204 17.7203 37.0028 17.8162 36.0959Z" fill="white"/>
<path id="Vector_61" d="M16.751 41.3028C16.8149 41.0467 16.8894 40.7907 16.9534 40.5239C16.9853 40.3852 17.0066 40.2358 17.0279 40.0971C17.0492 40.0331 17.0386 39.9371 17.0812 39.9051C17.4753 39.553 17.3688 39.0622 17.4433 38.6247C17.7203 39.6597 17.0173 40.4279 16.751 41.3028Z" fill="white"/>
<path id="Vector_62" d="M19.105 50.8309C19.7229 49.8493 20.3513 48.857 20.9691 47.8754C20.9265 47.8327 20.8733 47.8007 20.8306 47.758C20.33 48.5156 19.8294 49.2838 19.3074 50.0627C18.8175 49.988 18.3062 49.9026 17.7842 49.8173C17.7629 49.892 17.7523 49.956 17.731 50.0307C18.0718 50.1053 18.4233 50.1267 18.7322 50.2761C18.9027 50.3508 18.9666 50.6495 19.0837 50.8416L19.105 50.8309Z" fill="white"/>
<path id="Vector_63" d="M23.728 2.12331C23.6747 2.08063 23.6214 2.04862 23.4936 1.95259C23.7386 1.97393 23.909 1.9846 24.0688 2.00594C24.0688 1.9846 24.0795 1.95259 24.0795 1.93125C23.6214 1.86723 23.1634 1.80322 22.6415 1.7392C23.0356 1.92058 23.3552 2.06996 23.6854 2.21934C23.696 2.18733 23.7067 2.15532 23.728 2.12331Z" fill="white"/>
<path id="Vector_64" d="M19.2221 50.6068C19.1156 50.6068 18.9665 50.5428 18.9132 50.5962C18.2315 51.4604 17.5711 52.346 17.0172 53.3703C17.7522 52.4421 18.4765 51.5138 19.2115 50.5855C19.2115 50.5962 19.2221 50.6068 19.2221 50.6068Z" fill="white"/>
</g>
<g id="Group_6">
<path id="Vector_65" d="M38.7471 53.7757C38.598 53.7757 38.4702 53.829 38.3636 53.9251C38.2571 54.0318 38.2039 54.1705 38.2039 54.3199C38.2039 54.4692 38.2571 54.6079 38.3636 54.704C38.4702 54.8107 38.598 54.8533 38.7471 54.8533C38.9069 54.8533 39.0454 54.8 39.1519 54.704C39.2584 54.5973 39.3117 54.4692 39.3117 54.3199C39.3117 54.1598 39.2584 54.0318 39.1519 53.9251C39.0454 53.8184 38.9069 53.7757 38.7471 53.7757Z" fill="white"/>
<path id="Vector_66" d="M37.2558 53.7757C37.1066 53.7757 36.9788 53.829 36.8723 53.9251C36.7658 54.0318 36.7125 54.1705 36.7125 54.3199C36.7125 54.4692 36.7658 54.6079 36.8723 54.704C36.9788 54.8107 37.1066 54.8533 37.2558 54.8533C37.4156 54.8533 37.554 54.8 37.6605 54.704C37.7671 54.5973 37.8203 54.4692 37.8203 54.3199C37.8203 54.1598 37.7671 54.0318 37.6605 53.9251C37.554 53.8184 37.4156 53.7757 37.2558 53.7757Z" fill="white"/>
<path id="Vector_67" d="M52.7649 53.6904C52.6158 53.6904 52.488 53.7437 52.3815 53.8397C52.2749 53.9464 52.2217 54.0851 52.2217 54.2345C52.2217 54.3839 52.2749 54.5226 52.3815 54.6186C52.488 54.7253 52.6158 54.768 52.7649 54.768C52.9247 54.768 53.0632 54.7147 53.1697 54.6186C53.2762 54.5119 53.3295 54.3839 53.3295 54.2345C53.3295 54.0745 53.2762 53.9464 53.1697 53.8397C53.0632 53.7437 52.9247 53.6904 52.7649 53.6904Z" fill="white"/>
<path id="Vector_68" d="M51.2737 53.6904C51.1246 53.6904 50.9968 53.7437 50.8902 53.8397C50.7837 53.9464 50.7305 54.0851 50.7305 54.2345C50.7305 54.3839 50.7837 54.5226 50.8902 54.6186C50.9968 54.7253 51.1246 54.768 51.2737 54.768C51.4335 54.768 51.572 54.7147 51.6785 54.6186C51.785 54.5119 51.8383 54.3839 51.8383 54.2345C51.8383 54.0745 51.785 53.9464 51.6785 53.8397C51.572 53.7437 51.4335 53.6904 51.2737 53.6904Z" fill="white"/>
<path id="Vector_69" d="M52.6157 51.8979H50.496H50.4001H50.006V49.6145C50.006 48.9957 49.8356 48.5262 49.4841 48.2061C49.2071 47.95 48.8876 47.822 48.5254 47.822H45.692L45.724 47.726L44.8825 47.3952L44.3499 48.7396H48.5148C48.7065 48.7823 48.8237 48.8356 48.8663 48.8783C49.0154 49.017 49.09 49.2624 49.09 49.6252V51.9085H43.9025H43.8066H42.571V47.3952H41.3035C40.1531 47.3952 39.3542 47.5873 38.9174 47.9714C38.4488 48.3875 38.2144 48.921 38.2144 49.5718V50.3401H39.8868V51.9085H36.4569C36.4569 51.9085 36.4462 51.9085 36.4356 51.9085C36.4143 51.9085 36.3717 51.8979 36.329 51.8872C36.2225 51.8658 36.1373 51.8232 36.0734 51.7592C35.8604 51.5671 35.7538 51.2043 35.7538 50.6708V47.95L34.4224 48.4195L34.7206 49.2838L34.8484 49.2411V50.6815C34.8484 51.4817 35.0615 52.0686 35.4769 52.442C35.7538 52.6981 36.0841 52.8261 36.4675 52.8261H40.8241V49.4758H39.1305C39.1518 49.1024 39.3009 48.8036 39.5672 48.5902C39.8335 48.3768 40.5365 48.2701 41.6656 48.2701V52.8261H43.8173H43.9132H49.09V52.9755L50.006 53.8931V52.8261H50.3895H50.4854H53.5211V48.5155L53.7342 48.5582L53.9153 47.6619L52.6051 47.4059V51.8979H52.6157Z" fill="white"/>
<path id="Vector_70" d="M63.7045 50.0946C63.7045 50.8309 63.5553 51.343 63.2464 51.6418C63.0654 51.8125 62.8417 51.8978 62.5541 51.8978H62.3623H62.2665H61.2332V45.6453L60.3172 44.8771V51.8978H59.252H59.1774H58.8046V47.6726L57.8885 48.1101L56.7488 48.3448C56.2162 48.4515 55.7688 48.6756 55.396 49.049C54.9273 49.5185 54.693 50.1267 54.693 50.8735V53.2742L55.6091 52.8154H57.8885V53.6477C57.8885 53.9251 57.8033 54.1598 57.6329 54.3412C57.4412 54.5333 57.1536 54.64 56.7488 54.64H55.7582V55.5576H56.7488C57.4199 55.5576 57.9418 55.3549 58.3146 54.9601C58.6448 54.608 58.8153 54.1705 58.8153 53.669C58.8153 53.637 58.8153 53.5943 58.8153 53.5517V52.8048H59.1881H59.2839H62.2665H62.3623H62.5221C63.0653 52.8048 63.5127 52.6447 63.8642 52.314C64.3649 51.8338 64.6205 51.0976 64.6205 50.084V45.6347L63.7045 44.8024V50.0946ZM57.8992 51.8978H55.6197V50.8735C55.6197 50.34 55.8008 49.9239 56.1523 49.6252C56.3121 49.4865 56.5677 49.3584 56.8979 49.2517L57.8992 49.049V51.8978Z" fill="white"/>
<path id="Vector_71" d="M65.6429 52.8155H66.559V46.0828L66.7827 46.1682L67.0916 45.3039L65.6429 44.7704V52.8155Z" fill="white"/>
<path id="Vector_72" d="M73.3762 53.701C73.2271 53.701 73.0993 53.7544 72.9928 53.8504C72.8863 53.9571 72.833 54.0958 72.833 54.2452C72.833 54.3946 72.8863 54.5333 72.9928 54.6293C73.0993 54.736 73.2271 54.7787 73.3762 54.7787C73.536 54.7787 73.6745 54.7254 73.781 54.6293C73.8875 54.5226 73.9408 54.3946 73.9408 54.2452C73.9408 54.0852 73.8875 53.9571 73.781 53.8504C73.6745 53.7544 73.536 53.701 73.3762 53.701Z" fill="white"/>
<path id="Vector_73" d="M90.7282 46.627C90.888 46.627 91.0264 46.5736 91.1329 46.4776C91.2395 46.3709 91.2927 46.2429 91.2927 46.0935C91.2927 45.9334 91.2395 45.8054 91.1329 45.6987C91.0264 45.592 90.888 45.5493 90.7282 45.5493C90.5791 45.5493 90.4512 45.6027 90.3447 45.6987C90.2382 45.8054 90.1849 45.9441 90.1849 46.0935C90.1849 46.2429 90.2382 46.3816 90.3447 46.4776C90.4512 46.5736 90.5791 46.627 90.7282 46.627Z" fill="white"/>
<path id="Vector_74" d="M89.2368 46.627C89.3966 46.627 89.5351 46.5736 89.6416 46.4776C89.7481 46.3709 89.8014 46.2429 89.8014 46.0935C89.8014 45.9334 89.7481 45.8054 89.6416 45.6987C89.5351 45.592 89.3966 45.5493 89.2368 45.5493C89.0877 45.5493 88.9599 45.6027 88.8534 45.6987C88.7469 45.8054 88.6936 45.9441 88.6936 46.0935C88.6936 46.2429 88.7469 46.3816 88.8534 46.4776C88.9599 46.5736 89.0771 46.627 89.2368 46.627Z" fill="white"/>
<path id="Vector_75" d="M93.5827 50.0946C93.5827 50.8309 93.4336 51.343 93.1247 51.6418C92.9436 51.8125 92.7199 51.8978 92.4323 51.8978H92.2406H92.1447H91.2393V47.9073L90.3233 47.3845V51.8978H88.3953H88.3527H87.9479V50.1693C87.9479 49.4438 87.7775 48.921 87.426 48.6115C87.1384 48.3555 86.8082 48.2381 86.4353 48.2381H82.7072L82.3237 48.7716V47.4912H81.4077V51.9085H80.8964H80.8112H79.7779V45.656L78.8619 44.8878V51.9085H77.8393H77.7328H76.9872V48.5048L77.2002 48.5475L77.3813 47.6513L76.0711 47.3952V51.9085H71.7571C71.5654 51.9085 71.3843 51.8232 71.2032 51.6524C70.8943 51.3537 70.7452 50.8415 70.7452 50.1053V48.2488H69.8291V50.1053C69.8291 51.1189 70.0848 51.8552 70.5854 52.3353C70.9369 52.6661 71.331 52.8261 71.7784 52.8261H77.7115H77.818H80.7899H80.8857H87.0532V52.9755L87.9266 53.8931V52.8261H88.3314H88.3846H92.1234H92.2193H92.3791C92.9223 52.8261 93.3697 52.6661 93.7212 52.3353C94.2218 51.8552 94.4775 51.1189 94.4775 50.1053V45.6347L93.5614 44.8024V50.0946H93.5827ZM87.0745 51.8978H82.3237V49.145H86.5845C86.7229 49.1557 86.8295 49.1984 86.904 49.2837C87.0212 49.3904 87.0745 49.6785 87.0745 50.18V51.8978Z" fill="white"/>
<path id="Vector_76" d="M95.5214 44.7704V52.8155H96.4374V46.0828L96.6611 46.1682L96.97 45.3039L95.5214 44.7704Z" fill="white"/>
</g>
</g>
</svg>
