<svg width="24" height="25" viewBox="0 0 24 25" fill="none" xmlns="http://www.w3.org/2000/svg">
<path d="M2.3569 3.08972C2.52359 2.76372 2.85886 2.55859 3.225 2.55859H8.1C8.41308 2.55859 8.70711 2.70893 8.89041 2.96274L13.5354 9.3943L20.0856 2.84416C20.4663 2.4634 21.0837 2.4634 21.4644 2.84416C21.8452 3.22492 21.8452 3.84226 21.4644 4.22302L14.6919 10.9956L21.5654 20.5127C21.7798 20.8096 21.8098 21.2015 21.6431 21.5275C21.4764 21.8535 21.1411 22.0586 20.775 22.0586H15.9C15.5869 22.0586 15.2929 21.9083 15.1096 21.6545L10.4646 15.2229L3.91443 21.773C3.53367 22.1538 2.91634 22.1538 2.53557 21.773C2.15481 21.3923 2.15481 20.7749 2.53557 20.3942L9.30811 13.6216L2.43459 4.10444C2.22022 3.80762 2.19021 3.41572 2.3569 3.08972Z" fill="#CAD1E9"/>
</svg>
