<svg width="44" height="44" viewBox="0 0 44 44" fill="none" xmlns="http://www.w3.org/2000/svg">
<g clip-path="url(#clip0_19_2080)">
<path d="M16.4498 28.1093C16.8936 27.9924 17.3314 27.8538 17.7616 27.6941C17.7808 27.6872 17.799 27.6738 17.818 27.6652C18.2685 28.012 18.6331 28.4579 18.8835 28.9684C19.1339 29.4789 19.2633 30.0401 19.2617 30.6087C19.2626 30.7911 19.336 30.9657 19.4656 31.0941C19.5952 31.2224 19.7706 31.294 19.953 31.2931C20.1354 31.2922 20.31 31.2189 20.4384 31.0892C20.5667 30.9596 20.6383 30.7843 20.6374 30.6018C20.642 29.8396 20.4726 29.0863 20.1423 28.3993C19.8119 27.7123 19.3292 27.1097 18.731 26.6374C19.0776 25.9525 19.3485 25.2319 19.5388 24.4882C20.9131 18.6741 18.786 14.5126 13.2172 12.1194C10.4208 10.918 5.63614 9.26803 6.48967 5.3235C6.52001 5.18318 6.50566 5.0369 6.44864 4.90515C6.39162 4.77341 6.29479 4.66281 6.17173 4.58889C6.04868 4.51496 5.90557 4.48141 5.76247 4.49294C5.61938 4.50448 5.48349 4.56051 5.37386 4.65318C2.78714 6.83497 1.04605 8.82047 0.36061 11.9706C-0.110888 13.9947 -0.133304 16.0975 0.294937 18.1313C0.723178 20.165 1.59168 22.0802 2.83939 23.7423C5.08099 26.7869 8.96845 28.5497 13.002 28.5497C14.1653 28.5504 15.324 28.4022 16.4498 28.1093ZM3.9473 22.9276C2.81754 21.4216 2.03133 19.6864 1.64395 17.8439C1.25657 16.0015 1.27742 14.0966 1.70502 12.2631C2.19555 10.0071 3.33989 8.39868 5.02564 6.80093C5.39139 10.588 9.69239 12.1016 12.6737 13.3824C17.676 15.5318 19.4319 18.9604 18.2002 24.1723C18.0443 24.7585 17.8353 25.3292 17.5756 25.8773C16.2982 25.1579 13.333 23.325 11.5627 20.9205C11.4547 20.7735 11.2927 20.6756 11.1125 20.6481C10.9322 20.6206 10.7484 20.6658 10.6014 20.7739C10.4545 20.8819 10.3565 21.0439 10.329 21.2241C10.3015 21.4044 10.3468 21.5882 10.4548 21.7352C12.145 24.0311 14.7424 25.7983 16.2917 26.7247C16.2291 26.7422 16.1645 26.7632 16.102 26.7797C12.3379 27.7625 6.92864 26.9763 3.9473 22.9276Z" fill="url(#paint0_linear_19_2080)"/>
<path d="M40.4714 6.19312C38.1128 3.70222 34.8783 2.22576 31.4512 2.07566C28.0241 1.92556 24.6729 3.11359 22.1055 5.38874C22.0798 5.41107 22.0469 5.42336 22.0129 5.42336C21.9788 5.42336 21.9459 5.41107 21.9202 5.38874C19.9216 3.61698 17.4328 2.4927 14.7822 2.1642C12.1316 1.83569 9.44368 2.3184 7.073 3.54865C7.38253 3.78567 7.61832 4.10578 7.75288 4.47168C7.88745 4.83758 7.91524 5.23419 7.83303 5.61527C7.32772 7.95071 9.90894 9.23978 13.0766 10.5677C13.3138 10.6674 13.5427 10.7636 13.7596 10.8564C17.6127 12.5119 20.0193 15.0086 20.9179 18.2189H25.7476C25.8458 18.1748 25.9322 18.108 25.9995 18.024L27.2518 12.832C27.306 12.6036 27.4358 12.4002 27.6201 12.2549C27.8045 12.1095 28.0325 12.0308 28.2672 12.0314C28.5003 12.0399 28.7235 12.1275 28.9002 12.2796C29.0769 12.4318 29.1967 12.6395 29.2397 12.8687L30.6921 20.6457L32.6542 15.2963C32.6611 15.2791 32.6679 15.2612 32.6758 15.2447C32.7544 15.0658 32.8831 14.9133 33.0462 14.8057C33.2094 14.6982 33.4003 14.64 33.5957 14.6384C33.7912 14.6398 33.9824 14.6977 34.1457 14.8051C34.309 14.9125 34.4378 15.0648 34.5166 15.2437L35.6929 17.9439C35.7447 18.0438 35.81 18.1362 35.8868 18.2185H43.637C44.1512 16.1089 44.131 13.9043 43.5782 11.8045C43.0255 9.70462 41.9576 7.77617 40.4714 6.19312Z" fill="#5EEFFF"/>
<path d="M34.4389 18.5082L33.6256 16.6416L31.5229 22.3733C31.516 22.3912 31.5091 22.4084 31.5012 22.4255C31.4232 22.6041 31.2951 22.7564 31.1325 22.8638C30.9699 22.9713 30.7797 23.0294 30.5848 23.0312C30.5483 23.0313 30.5118 23.0293 30.4755 23.0254C30.2576 22.9995 30.0537 22.9049 29.8932 22.7554C29.7327 22.6058 29.6239 22.409 29.5828 22.1935L28.1974 14.7754L27.3267 18.3848C27.2133 18.714 27.007 19.0033 26.7328 19.2178C26.4585 19.4323 26.128 19.5629 25.7812 19.5937H21.2025C21.4193 21.3358 21.3088 23.1031 20.8766 24.8046C20.7453 25.3201 20.5817 25.8267 20.3868 26.3216C21.4465 27.4913 22.027 29.0171 22.0127 30.5955C22.014 30.8664 21.9619 31.1349 21.8594 31.3857C21.757 31.6364 21.6061 31.8646 21.4154 32.057C21.2247 32.2495 20.998 32.4025 20.7482 32.5073C20.4984 32.6121 20.2304 32.6667 19.9595 32.6679H19.9526C19.4073 32.6672 18.8843 32.4512 18.4974 32.0669C18.1105 31.6826 17.891 31.161 17.8867 30.6157C17.8917 30.1264 17.7397 29.6483 17.4528 29.2517C17.2322 29.3205 17.0139 29.3834 16.7963 29.4398C15.5573 29.7624 14.2822 29.9252 13.002 29.9245C11.5246 29.9253 10.0549 29.7112 8.6391 29.2889L20.9374 41.5023C21.2257 41.7816 21.6114 41.9378 22.0129 41.9378C22.4143 41.9378 22.8 41.7816 23.0883 41.5023L40.0283 24.6792C41.469 23.249 42.566 21.51 43.2362 19.5937H35.75C34.9518 19.5937 34.4592 18.5522 34.4389 18.5082Z" fill="url(#paint1_linear_19_2080)"/>
</g>
<defs>
<linearGradient id="paint0_linear_19_2080" x1="6" y1="6.5" x2="19" y2="30" gradientUnits="userSpaceOnUse">
<stop stop-color="#5EEFFF"/>
<stop offset="1" stop-color="#2B7D86"/>
</linearGradient>
<linearGradient id="paint1_linear_19_2080" x1="17" y1="21" x2="24.5" y2="40.5" gradientUnits="userSpaceOnUse">
<stop stop-color="#5EEFFF"/>
<stop offset="1" stop-color="#2B7D86"/>
</linearGradient>
<clipPath id="clip0_19_2080">
<rect width="44" height="44" fill="white"/>
</clipPath>
</defs>
</svg>
