<svg width="24" height="25" viewBox="0 0 24 25" fill="none" xmlns="http://www.w3.org/2000/svg">
<path fill-rule="evenodd" clip-rule="evenodd" d="M6.69674 3.58033C8.35573 3.24215 10.1414 3.05859 12 3.05859C13.8586 3.05859 15.6443 3.24215 17.3032 3.58033L17.4305 3.60625C19.3251 3.99188 20.5875 4.24883 21.6754 5.64751C22.7516 7.03117 22.751 8.63579 22.75 11.121V13.4962C22.751 15.9814 22.7516 17.586 21.6754 18.9697C20.5875 20.3684 19.3251 20.6253 17.4305 21.0109L17.3032 21.0369C15.6443 21.375 13.8586 21.5586 12 21.5586C10.1414 21.5586 8.35573 21.375 6.69674 21.0369L6.56946 21.0109C4.67483 20.6253 3.41243 20.3684 2.32458 18.9697C1.2484 17.586 1.249 15.9814 1.24993 13.4962V11.121C1.249 8.63579 1.2484 7.03117 2.32458 5.64751C3.41243 4.24883 4.67483 3.99188 6.56946 3.60625L6.69674 3.58033ZM11.2945 8.56083C11.813 8.77845 12.4429 9.13022 13.213 9.56032C13.3144 9.61693 13.4163 9.67317 13.5183 9.72947C14.0217 10.0074 14.528 10.2869 14.9949 10.6226C15.4145 10.9243 15.8126 11.2982 15.9444 11.8435C16.0184 12.1496 16.0184 12.4676 15.9444 12.7737C15.8126 13.319 15.4145 13.6929 14.9949 13.9946C14.528 14.3303 14.0216 14.6099 13.5182 14.8878C13.4162 14.9441 13.3144 15.0003 13.213 15.0569C12.4429 15.487 11.8131 15.8387 11.2945 16.0564C10.4515 16.4101 9.55759 16.4388 8.82288 15.8368C8.36304 15.46 8.20049 14.9205 8.12917 14.3769C7.95682 13.063 7.95674 11.5548 8.12917 10.2403C8.20049 9.69665 8.36304 9.15717 8.82288 8.7804C9.55759 8.17842 10.4515 8.20704 11.2945 8.56083Z" fill="#CAD1E9"/>
</svg>
